<?xml version="1.0" standalone="no"?>
<!DOCTYPE svg PUBLIC "-//W3C//DTD SVG 1.1//EN" "http://www.w3.org/Graphics/SVG/1.1/DTD/svg11.dtd" >
<svg xmlns="http://www.w3.org/2000/svg">
<metadata>Generated by IcoMoon</metadata>
<defs>
<font id="icomoon" horiz-adv-x="1024">
<font-face units-per-em="1024" ascent="870.850439882698" descent="-153.14956011730206" />
<missing-glyph horiz-adv-x="1024" />
<glyph unicode="&#x20;" d="" />
<glyph unicode="&#xe800;" glyph-name="google-1" horiz-adv-x="977" d="M976.912 340.725c0-283.925-193.725-484.825-480.725-484.825-274.7 0-496.1 221.4-496.1 496.1s221.4 496.1 496.1 496.1c134.275 0 247.025-48.175 333.125-129.15l-135.3-130.175c-176.3 170.15-505.325 42.025-505.325-236.775 0-173.225 138.375-313.65 307.5-313.65 196.8 0 270.6 141.45 281.875 214.225h-281.875v171.175h473.55c4.1-25.625 7.175-50.225 7.175-83.025z" />
<glyph unicode="&#xe801;" glyph-name="check" d="M906.101 667.856l46.125-46.125-577.076-577.076-22.55-21.525-23.575 21.525-256.25 256.25 46.125 46.125 233.7-232.675z" />
<glyph unicode="&#xe802;" glyph-name="angle-up" d="M512.5 579.706l23.575-21.525 399.75-400.775-46.125-46.125-377.2 377.2-377.2-377.2-46.125 46.125 400.775 400.775z" />
<glyph unicode="&#xe803;" glyph-name="life-ring" d="M512.5 729.869c212.175 0 384.375-172.2 384.375-384.375s-172.2-384.375-384.375-384.375-384.375 172.2-384.375 384.375 172.2 384.375 384.375 384.375zM512.5 666.319c-10.25 0-21.525-1.025-31.775-2.050v-97.375c10.25 1.025 20.5 3.075 31.775 3.075s21.525-2.050 31.775-3.075v97.375c-10.25 1.025-20.5 2.050-31.775 2.050zM416.15 651.969c-99.425-31.775-177.325-110.7-209.1-210.125h103.525c21.525 46.125 59.45 84.050 105.575 105.575v104.55zM608.851 651.969v-104.55c46.125-21.525 84.050-59.45 105.575-105.575h104.55c-31.775 99.425-110.7 178.35-210.125 210.125zM512.5 505.394c-89.175 0-159.9-70.725-159.9-159.9s70.725-159.9 159.9-159.9 159.9 70.725 159.9 159.9-70.725 159.9-159.9 159.9zM194.75 377.269c-1.025-10.25-2.050-20.5-2.050-31.775 0-10.25 1.025-21.525 2.050-31.775h96.35c-1.025 10.25-3.075 20.5-3.075 31.775s1.025 21.525 2.050 31.775h-95.325zM733.901 377.269c1.025-10.25 3.075-20.5 3.075-31.775s-2.050-21.525-3.075-31.775h97.375c1.025 10.25 2.050 21.525 2.050 31.775s-1.025 21.525-2.050 31.775h-97.375zM206.025 249.144c31.775-99.425 110.7-178.35 210.125-210.125v104.55c-46.125 21.525-84.050 59.45-105.575 105.575h-104.55zM714.426 249.144c-21.525-46.125-59.45-84.050-105.575-105.575v-104.55c99.425 31.775 178.35 110.7 210.125 210.125h-104.55zM480.725 124.093v-96.35c10.25-1.025 21.525-2.050 31.775-2.050s21.525 1.025 31.775 2.050v96.35c-10.25-1.025-20.5-3.075-31.775-3.075s-21.525 2.050-31.775 3.075z" />
<glyph unicode="&#xe804;" glyph-name="phone-square" d="M277.41 762.119c16.4 0 32.8-6.15 46.125-16.4l2.050-1.025 1.025-1.025 131.2-135.3-1.025-1.025c28.7-26.65 28.7-70.725 1.025-98.4l-63.55-63.55c9.225-22.55 36.9-79.95 89.175-130.175s107.625-78.925 131.2-90.2l63.55 63.55c26.65 26.65 73.8 26.65 100.45 0l1.025-2.050 130.175-130.175c26.65-25.625 26.65-71.75 0-98.4l-101.475-101.475c-29.725-25.625-71.75-34.85-110.7-21.525h-1.025c-75.85 28.7-227.55 95.325-363.875 231.65-135.3 136.325-205 285.975-231.65 363.875 0 0 0 1.025 0 1.025-13.325 36.9-4.1 78.925 26.65 107.625l-1.025 1.025 101.475 104.55 2.050 1.025c13.325 10.25 29.725 16.4 47.15 16.4zM277.41 698.568c-3.075 0-5.125-1.025-7.175-3.075l-99.425-101.475c-11.275-9.225-14.35-28.7-10.25-42.025 24.6-69.7 91.225-213.2 217.3-340.3 126.075-125.050 266.5-187.575 339.275-216.275 18.45-6.15 34.85-3.075 49.2 9.225l98.4 98.4c5.125 5.125 5.125 3.075 0 9.225l-131.2 130.175c-5.125 6.15-5.125 6.15-10.25 0l-79.95-79.95-15.375-14.35-19.475 8.2s-88.15 37.925-161.95 105.575l-7.175 6.15c-77.9 73.8-114.8 172.2-114.8 172.2l-6.15 19.475 94.3 94.3c4.1 4.1 2.050 7.175 2.050 7.175l-3.075 3.075-128.125 131.2c-2.050 2.050-4.1 3.075-6.15 3.075z" />
<glyph unicode="&#xe805;" glyph-name="euro" d="M593.988 729.869c86.1 0 165.025-42.025 221.4-106.6l-49.2-42.025c-46.125 53.3-106.6 85.075-172.2 85.075-112.75 0-211.15-93.275-244.975-224.475h276.75v-64.575h-287c-1.025-10.25-1.025-20.5-1.025-31.775s0-21.525 1.025-31.775h287v-64.575h-276.75c33.825-131.2 132.225-223.45 244.975-223.45 65.6 0 126.075 30.75 172.2 85.075l49.2-42.025c-56.375-65.6-135.3-107.625-221.4-107.625-152.725 0-275.725 125.050-310.575 288.025h-73.8v64.575h65.6c-1.025 10.25-2.050 21.525-2.050 31.775s1.025 21.525 2.050 31.775h-65.6v64.575h73.8c34.85 164 157.85 288.025 310.575 288.025z" />
<glyph unicode="&#xe806;" glyph-name="phone" d="M277.41 762.119c16.4 0 32.8-6.15 46.125-16.4l2.050-1.025 1.025-1.025 131.2-135.3-1.025-1.025c28.7-26.65 28.7-70.725 1.025-98.4l-63.55-63.55c9.225-22.55 36.9-79.95 89.175-130.175s107.625-78.925 131.2-90.2l63.55 63.55c26.65 26.65 73.8 26.65 100.45 0l1.025-2.050 130.175-130.175c26.65-25.625 26.65-71.75 0-98.4l-101.475-101.475c-29.725-25.625-71.75-34.85-110.7-21.525h-1.025c-75.85 28.7-227.55 95.325-363.875 231.65-135.3 136.325-205 285.975-231.65 363.875 0 0 0 1.025 0 1.025-13.325 36.9-4.1 78.925 26.65 107.625l-1.025 1.025 101.475 104.55 2.050 1.025c13.325 10.25 29.725 16.4 47.15 16.4zM277.41 698.568c-3.075 0-5.125-1.025-7.175-3.075l-99.425-101.475c-11.275-9.225-14.35-28.7-10.25-42.025 24.6-69.7 91.225-213.2 217.3-340.3 126.075-125.050 266.5-187.575 339.275-216.275 18.45-6.15 34.85-3.075 49.2 9.225l98.4 98.4c5.125 5.125 5.125 3.075 0 9.225l-131.2 130.175c-5.125 6.15-5.125 6.15-10.25 0l-79.95-79.95-15.375-14.35-19.475 8.2s-88.15 37.925-161.95 105.575l-7.175 6.15c-77.9 73.8-114.8 172.2-114.8 172.2l-6.15 19.475 94.3 94.3c4.1 4.1 2.050 7.175 2.050 7.175l-3.075 3.075-128.125 131.2c-2.050 2.050-4.1 3.075-6.15 3.075z" />
<glyph unicode="&#xe807;" glyph-name="life-bouy" d="M512.5 729.869c212.175 0 384.375-172.2 384.375-384.375s-172.2-384.375-384.375-384.375-384.375 172.2-384.375 384.375 172.2 384.375 384.375 384.375zM512.5 666.319c-10.25 0-21.525-1.025-31.775-2.050v-97.375c10.25 1.025 20.5 3.075 31.775 3.075s21.525-2.050 31.775-3.075v97.375c-10.25 1.025-20.5 2.050-31.775 2.050zM416.15 651.969c-99.425-31.775-177.325-110.7-209.1-210.125h103.525c21.525 46.125 59.45 84.050 105.575 105.575v104.55zM608.851 651.969v-104.55c46.125-21.525 84.050-59.45 105.575-105.575h104.55c-31.775 99.425-110.7 178.35-210.125 210.125zM512.5 505.394c-89.175 0-159.9-70.725-159.9-159.9s70.725-159.9 159.9-159.9 159.9 70.725 159.9 159.9-70.725 159.9-159.9 159.9zM194.75 377.269c-1.025-10.25-2.050-20.5-2.050-31.775 0-10.25 1.025-21.525 2.050-31.775h96.35c-1.025 10.25-3.075 20.5-3.075 31.775s1.025 21.525 2.050 31.775h-95.325zM733.901 377.269c1.025-10.25 3.075-20.5 3.075-31.775s-2.050-21.525-3.075-31.775h97.375c1.025 10.25 2.050 21.525 2.050 31.775s-1.025 21.525-2.050 31.775h-97.375zM206.025 249.144c31.775-99.425 110.7-178.35 210.125-210.125v104.55c-46.125 21.525-84.050 59.45-105.575 105.575h-104.55zM714.426 249.144c-21.525-46.125-59.45-84.050-105.575-105.575v-104.55c99.425 31.775 178.35 110.7 210.125 210.125h-104.55zM480.725 124.093v-96.35c10.25-1.025 21.525-2.050 31.775-2.050s21.525 1.025 31.775 2.050v96.35c-10.25-1.025-20.5-3.075-31.775-3.075s-21.525 2.050-31.775 3.075z" />
<glyph unicode="&#xe808;" glyph-name="rmb" d="M230.625 698.094h75.85l206.025-331.075 206.025 331.075h75.85l-219.35-352.6h130.175v-63.55h-160.925v-64.575h160.925v-63.55h-160.925v-160.925h-63.55v160.925h-159.9v63.55h159.9v64.575h-159.9v63.55h130.175z" />
<glyph unicode="&#xe809;" glyph-name="creative-commons-1" d="M512.5 729.869c212.175 0 384.375-172.2 384.375-384.375s-172.2-384.375-384.375-384.375-384.375 172.2-384.375 384.375 172.2 384.375 384.375 384.375zM512.5 666.319c-177.325 0-319.8-143.5-319.8-320.825s142.475-319.8 319.8-319.8 320.825 142.475 320.825 319.8-143.5 320.825-320.825 320.825zM384.375 473.619c52.275 0 96.35-43.050 96.35-96.35h-64.575c0 18.45-13.325 32.8-31.775 32.8s-31.775-14.35-31.775-32.8v-63.55c0-18.45 13.325-31.775 31.775-31.775s31.775 13.325 31.775 31.775h64.575c0-53.3-44.075-96.35-96.35-96.35s-96.35 43.050-96.35 96.35v63.55c0 53.3 44.075 96.35 96.35 96.35zM640.626 473.619c52.275 0 96.35-43.050 96.35-96.35h-64.575c0 18.45-13.325 32.8-31.775 32.8s-31.775-14.35-31.775-32.8v-63.55c0-18.45 13.325-31.775 31.775-31.775s31.775 13.325 31.775 31.775h64.575c0-53.3-44.075-96.35-96.35-96.35s-96.35 43.050-96.35 96.35v63.55c0 53.3 44.075 96.35 96.35 96.35z" />
<glyph unicode="&#xe80a;" glyph-name="comment-o" d="M96.35 720.644h832.301v-640.626h-306.475l-86.1-88.15-23.575-21.525-22.55 21.525-87.125 88.15h-306.475v640.626zM159.9 656.069v-512.5h269.575l10.25-9.225 72.775-72.775 72.775 72.775 10.25 9.225h269.575v512.5h-705.201zM288.025 559.719h448.95v-63.55h-448.95v63.55zM288.025 431.594h448.95v-63.55h-448.95v63.55zM288.025 303.469h320.825v-63.55h-320.825v63.55z" />
<glyph unicode="&#xe80b;" glyph-name="check-circle-o" d="M512.5 761.644c111.725 0 214.225-44.075 288.025-117.875l-45.1-45.1c-60.475 60.475-146.575 99.425-242.925 99.425-195.775 0-352.6-156.825-352.6-352.6s156.825-352.6 352.6-352.6 352.6 156.825 352.6 352.6c0 28.7-4.1 54.325-10.25 79.95l52.275 51.25c15.375-42.025 21.525-86.1 21.525-131.2 0-230.625-185.525-416.15-416.15-416.15s-416.15 185.525-416.15 416.15 185.525 416.15 416.15 416.15zM874.326 625.319l46.125-46.125-384.375-384.375-23.575-22.55-22.55 22.55-160.925 159.9 46.125 46.125 137.35-137.35z" />
<glyph unicode="&#xe80c;" glyph-name="info-circle" d="M512.5 761.644c229.6 0 416.15-186.55 416.15-416.15s-186.55-416.15-416.15-416.15-416.15 186.55-416.15 416.15 186.55 416.15 416.15 416.15zM512.5 698.094c-194.75 0-352.6-157.85-352.6-352.6s157.85-352.6 352.6-352.6 352.6 157.85 352.6 352.6-157.85 352.6-352.6 352.6zM480.725 538.194h63.55v-64.575h-63.55v64.575zM480.725 410.069h63.55v-256.25h-63.55v256.25z" />
<glyph unicode="&#xe80d;" glyph-name="cog" d="M421.788 761.644h180.4l5.125-25.625 18.45-95.325c30.75-12.3 58.425-28.7 83.025-49.2l93.275 32.8 25.625 7.175 12.3-22.55 64.575-110.7 13.325-22.55-19.475-17.425-71.75-62.525c2.050-16.4 6.15-32.8 6.15-50.225s-4.1-33.825-6.15-50.225l71.75-62.525 19.475-17.425-13.325-22.55-64.575-110.7-12.3-22.55-25.625 8.2-93.275 31.775c-24.6-20.5-52.275-36.9-83.025-49.2l-18.45-95.325-5.125-25.625h-180.4l-5.125 25.625-18.45 95.325c-30.75 12.3-58.425 28.7-83.025 49.2l-93.275-31.775-25.625-8.2-12.3 22.55-64.575 110.7-12.3 22.55 18.45 17.425 71.75 62.525c-2.050 16.4-5.125 32.8-5.125 50.225s3.075 33.825 5.125 50.225l-71.75 62.525-18.45 17.425 12.3 22.55 64.575 110.7 12.3 22.55 25.625-7.175 93.275-32.8c24.6 20.5 52.275 36.9 83.025 49.2l18.45 95.325zM474.063 698.094l-16.4-83.025-4.1-19.475-17.425-6.15c-36.9-11.275-69.7-30.75-97.375-55.35l-14.35-13.325-17.425 6.15-80.975 27.675-37.925-64.575 63.55-57.4 15.375-12.3-5.125-18.45c-4.1-18.45-6.15-36.9-6.15-56.375s2.050-37.925 6.15-56.375l5.125-18.45-15.375-12.3-63.55-57.4 37.925-64.575 80.975 27.675 17.425 6.15 14.35-13.325c27.675-24.6 60.475-44.075 97.375-55.35l17.425-6.15 4.1-19.475 16.4-83.025h75.85l16.4 83.025 4.1 19.475 17.425 6.15c36.9 11.275 69.7 30.75 97.375 55.35l14.35 13.325 17.425-6.15 80.975-27.675 37.925 64.575-63.55 57.4-14.35 12.3 4.1 18.45c4.1 18.45 6.15 36.9 6.15 56.375s-2.050 37.925-6.15 56.375l-5.125 18.45 15.375 12.3 63.55 57.4-37.925 64.575-80.975-27.675-17.425-6.15-14.35 13.325c-27.675 24.6-60.475 44.075-97.375 55.35l-17.425 6.15-4.1 19.475-16.4 83.025h-75.85zM511.988 505.394c88.15 0 159.9-71.75 159.9-159.9s-71.75-159.9-159.9-159.9-159.9 71.75-159.9 159.9 71.75 159.9 159.9 159.9zM511.988 441.844c-53.3 0-96.35-43.050-96.35-96.35s43.050-96.35 96.35-96.35 96.35 43.050 96.35 96.35-43.050 96.35-96.35 96.35z" />
<glyph unicode="&#xe80e;" glyph-name="cogs" d="M672.401 761.644h63.55v-45.1c26.65-5.125 51.25-15.375 72.775-29.725l29.725 29.725 45.1-45.1-29.725-29.725c14.35-21.525 24.6-46.125 29.725-72.775h45.1v-63.55h-45.1c-5.125-26.65-15.375-51.25-29.725-72.775l30.75-33.825-47.15-44.075-29.725 32.8c-21.525-14.35-45.1-24.6-71.75-29.725v-45.1h-63.55v45.1c-26.65 5.125-51.25 15.375-71.75 30.75l-33.825-34.85-46.125 46.125 34.85 33.825c-15.375 20.5-25.625 45.1-30.75 71.75h-45.1v63.55h45.1c5.125 26.65 15.375 50.225 29.725 71.75l-32.8 29.725 44.075 47.15 33.825-30.75c21.525 14.35 46.125 24.6 72.775 29.725v45.1zM704.176 655.044c-65.6 0-117.875-52.275-117.875-117.875s52.275-117.875 117.875-117.875 117.875 52.275 117.875 117.875-52.275 117.875-117.875 117.875zM289.050 466.444l22.55-58.425c17.425 4.1 34.85 7.175 53.3 7.175s35.875-3.075 53.3-7.175l22.55 58.425 59.45-24.6-23.575-57.4c30.75-18.45 56.375-44.075 74.825-74.825l57.4 23.575 24.6-59.45-58.425-22.55c4.1-17.425 7.175-34.85 7.175-53.3s-3.075-35.875-7.175-53.3l58.425-22.55-24.6-59.45-57.4 23.575c-18.45-30.75-44.075-56.375-74.825-74.825l23.575-57.4-59.45-24.6-22.55 57.4c-17.425-4.1-34.85-7.175-53.3-7.175s-35.875 3.075-53.3 7.175l-22.55-57.4-59.45 24.6 23.575 57.4c-30.75 18.45-56.375 44.075-74.825 74.825l-57.4-23.575-24.6 59.45 57.4 22.55c-4.1 17.425-7.175 34.85-7.175 53.3s3.075 35.875 7.175 53.3l-57.4 22.55 24.6 59.45 57.4-23.575c18.45 30.75 44.075 56.375 74.825 74.825l-23.575 57.4zM364.9 351.644c-85.075 0-153.75-68.675-153.75-153.75s68.675-153.75 153.75-153.75 153.75 68.675 153.75 153.75-68.675 153.75-153.75 153.75z" />
<glyph unicode="&#xe80f;" glyph-name="gift" d="M384.375 713.981c56.375 0 94.3-43.050 118.9-77.9 4.1-5.125 6.15-10.25 9.225-14.35 3.075 4.1 6.15 9.225 9.225 14.35 24.6 34.85 62.525 77.9 118.9 77.9 52.275 0 96.35-44.075 96.35-96.35 0-11.275-2.050-21.525-6.15-31.775h166.050v-192.7h-31.775v-416.15h-705.201v416.15h-31.775v192.7h166.050c-3.075 10.25-6.15 20.5-6.15 31.775 0 52.275 44.075 96.35 96.35 96.35zM384.375 649.406c-18.45 0-31.775-13.325-31.775-31.775s13.325-31.775 31.775-31.775h73.8c-3.075 6.15-3.075 7.175-7.175 13.325-20.5 28.7-46.125 50.225-66.625 50.225zM640.626 649.406c-20.5 0-46.125-21.525-65.6-50.225-5.125-6.15-4.1-7.175-8.2-13.325h73.8c18.45 0 31.775 13.325 31.775 31.775s-13.325 31.775-31.775 31.775zM192.7 521.281v-63.55h288.025v31.775h63.55v-31.775h289.050v63.55h-640.626zM224.475 393.156v-351.575h256.25v319.8h63.55v-319.8h256.25v351.575h-576.051z" />
<glyph unicode="&#xe810;" glyph-name="cart-arrow-down" d="M148.113 665.806h70.725c29.725 0 55.35-19.475 62.525-48.175l84.050-336.2h399.75l76.875 289.050h66.625l-83.025-305.45c-7.175-27.675-31.775-47.15-60.475-47.15h-399.75c-29.725 0-55.35 19.475-62.525 48.175l-84.050 336.2h-70.725c-17.425 0-31.775 14.35-31.775 31.775s14.35 31.775 31.775 31.775zM725.188 217.881c52.275 0 95.325-44.075 95.325-96.35s-43.050-96.35-95.325-96.35-96.35 44.075-96.35 96.35 43.050 96.35 96.35 96.35zM436.138 217.881c53.3 0 96.35-44.075 96.35-96.35s-43.050-96.35-96.35-96.35-95.325 44.075-95.325 96.35 43.050 96.35 95.325 96.35zM532.488 665.806h64.575v-159.9h95.325l-128.125-128.125-128.125 128.125h96.35v159.9zM436.138 153.306c-17.425 0-31.775-13.325-31.775-31.775s14.35-31.775 31.775-31.775 32.8 13.325 32.8 31.775-14.35 31.775-32.8 31.775zM725.188 153.306c-18.45 0-32.8-13.325-32.8-31.775s14.35-31.775 32.8-31.775 31.775 13.325 31.775 31.775-14.35 31.775-31.775 31.775z" />
<glyph unicode="&#xe811;" glyph-name="home" d="M512.5 752.419l23.575-21.525 416.15-417.175-46.125-46.125-41 41v-370.025h-288.025v320.825h-128.125v-320.825h-289.050v370.025l-41-41-46.125 46.125 417.175 417.175zM512.5 661.194l-288.025-288.025v-370.025h159.9v319.8h256.25v-319.8h159.9v370.025z" />
<glyph unicode="&#xe812;" glyph-name="cart-plus" d="M148.113 665.806h70.725c29.725 0 55.35-19.475 62.525-48.175l84.050-336.2h399.75l76.875 289.050h66.625l-83.025-305.45c-7.175-27.675-31.775-47.15-60.475-47.15h-399.75c-29.725 0-55.35 19.475-62.525 48.175l-84.050 336.2h-70.725c-17.425 0-31.775 14.35-31.775 31.775s14.35 31.775 31.775 31.775zM725.188 217.881c52.275 0 95.325-44.075 95.325-96.35s-43.050-96.35-95.325-96.35-96.35 44.075-96.35 96.35 43.050 96.35 96.35 96.35zM436.138 217.881c53.3 0 96.35-44.075 96.35-96.35s-43.050-96.35-96.35-96.35-95.325 44.075-95.325 96.35 43.050 96.35 95.325 96.35zM532.488 665.806h64.575v-95.325h95.325v-64.575h-95.325v-96.35h-64.575v96.35h-96.35v64.575h96.35v95.325zM436.138 153.306c-17.425 0-31.775-13.325-31.775-31.775s14.35-31.775 31.775-31.775 32.8 13.325 32.8 31.775-14.35 31.775-32.8 31.775zM725.188 153.306c-18.45 0-32.8-13.325-32.8-31.775s14.35-31.775 32.8-31.775 31.775 13.325 31.775 31.775-14.35 31.775-31.775 31.775z" />
<glyph unicode="&#xe813;" glyph-name="refresh" d="M512.5 729.869c114.8 0 218.325-50.225 288.025-131.2v99.425h64.575v-224.475h-224.475v64.575h126.075c-57.4 76.875-150.675 128.125-254.2 128.125-137.35 0-250.1-85.075-297.25-205l-59.45 24.6c56.375 142.475 192.7 243.95 356.7 243.95zM809.751 229.669l59.45-24.6c-56.375-142.475-192.7-243.95-356.7-243.95-115.825 0-218.325 52.275-288.025 131.2v-99.425h-64.575v224.475h224.475v-63.55h-127.1c58.425-76.875 150.675-128.125 255.225-128.125 137.35 0 251.125 84.050 297.25 203.975z" />
<glyph unicode="&#xe814;" glyph-name="eye" d="M511.988 601.744c267.525 0 472.525-234.725 472.525-234.725l19.475-21.525-19.475-20.5s-187.575-214.225-436.65-233.7c-11.275-1.025-23.575-2.050-35.875-2.050s-23.575 1.025-35.875 2.050c-249.075 19.475-436.65 233.7-436.65 233.7l-18.45 20.5 18.45 21.525s206.025 234.725 472.525 234.725zM511.988 538.194c-71.75 0-137.35-20.5-193.725-46.125h1.025c-20.5-33.825-31.775-72.775-31.775-114.8 0-115.825 87.125-210.125 199.875-222.425 8.2-1.025 16.4-1.025 24.6-1.025s15.375 0 23.575 1.025c0 0 1.025-1.025 1.025 0 112.75 12.3 199.875 106.6 199.875 222.425 0 43.050-12.3 82-31.775 115.825-57.4 25.625-121.975 45.1-192.7 45.1zM511.988 473.619c53.3 0 96.35-43.050 96.35-96.35s-43.050-95.325-96.35-95.325-96.35 43.050-96.35 95.325 43.050 96.35 96.35 96.35zM232.163 443.894c-61.5-41-104.55-83.025-119.925-98.4 18.45-18.45 74.825-74.825 155.8-120.95-28.7 44.075-44.075 96.35-44.075 152.725 0 23.575 3.075 45.1 8.2 66.625zM791.813 443.894c5.125-21.525 8.2-43.050 8.2-66.625 0-56.375-15.375-108.65-44.075-152.725 80.975 46.125 137.35 102.5 155.8 120.95-15.375 15.375-58.425 57.4-119.925 98.4z" />
<glyph unicode="&#xe815;" glyph-name="map-marker" d="M512.5 773.944c158.875 0 288.025-129.15 288.025-288.025 0-45.1-18.45-96.35-43.050-152.725s-56.375-116.85-89.175-172.2c-64.575-111.725-130.175-206.025-130.175-206.025l-25.625-37.925-25.625 37.925s-65.6 94.3-130.175 206.025c-32.8 55.35-64.575 115.825-89.175 172.2s-43.050 107.625-43.050 152.725c0 158.875 129.15 288.025 288.025 288.025zM512.5 710.394c-124.025 0-224.475-100.45-224.475-224.475 0-25.625 14.35-73.8 36.9-127.1s56.375-111.725 87.125-166.050c51.25-87.125 82-133.25 100.45-159.9 18.45 26.65 50.225 72.775 100.45 159.9 31.775 54.325 63.55 112.75 87.125 166.050s36.9 101.475 36.9 127.1c0 124.025-100.45 224.475-224.475 224.475zM512.5 550.494c35.875 0 64.575-28.7 64.575-64.575s-28.7-63.55-64.575-63.55-63.55 28.7-63.55 63.55 28.7 64.575 63.55 64.575z" />
<glyph unicode="&#xe816;" glyph-name="headphones" d="M512.5 698.094c194.75 0 352.6-157.85 352.6-352.6v-256.25c0-52.275-44.075-96.35-96.35-96.35h-96.35v289.050h128.125v63.55c0 159.9-128.125 288.025-288.025 288.025s-288.025-128.125-288.025-288.025v-63.55h128.125v-289.050h-96.35c-52.275 0-96.35 44.075-96.35 96.35v256.25c0 194.75 158.875 352.6 352.6 352.6zM224.475 217.369v-128.125c0-18.45 13.325-31.775 31.775-31.775h31.775v159.9h-63.55zM736.976 217.369v-159.9h31.775c18.45 0 31.775 13.325 31.775 31.775v128.125h-63.55z" />
<glyph unicode="&#xe817;" glyph-name="comments" d="M64.063 747.294h640.626v-512.5h-309.55l-151.7-120.95-51.25-42.025v162.975h-128.125v512.5zM127.613 682.719v-384.375h128.125v-93.275l108.65 86.1 8.2 7.175h267.525v384.375h-512.5zM768.238 619.169h192.7v-512.5h-128.125v-162.975l-203.975 162.975h-298.275l79.95 63.55h240.875l116.85-93.275v93.275h128.125v384.375h-128.125v64.575z" />
<glyph unicode="&#xe818;" glyph-name="list-alt" d="M324.413 699.631l46.125-46.125-128.125-128.125-22.55-21.525-23.575 21.525-63.55 64.575 46.125 46.125 41-42.025zM476.113 644.281h416.15v-63.55h-416.15v63.55zM324.413 443.381l46.125-46.125-128.125-128.125-22.55-21.525-23.575 21.525-63.55 64.575 46.125 46.125 41-42.025zM476.113 388.031h416.15v-63.55h-416.15v63.55zM324.413 187.131l46.125-46.125-128.125-128.125-22.55-21.525-23.575 21.525-63.55 64.575 46.125 46.125 41-42.025zM476.113 131.781h416.15v-63.55h-416.15v63.55z" />
<glyph unicode="&#xe819;" glyph-name="list-ol" d="M191.675 745.757h64.575v-223.45h-63.55v144.525c-14.35-8.2-29.725-16.4-51.25-16.4v63.55c15.375 0 39.975 21.525 39.975 21.525zM352.6 650.431h544.276v-64.575h-544.276v64.575zM208.075 457.731c44.075 0 79.95-35.875 79.95-79.95 0-15.375-7.175-34.85-23.575-48.175l1.025-1.025-4.1-3.075-27.675-27.675h54.325v-64.575h-159.9v52.275l10.25 9.225 86.1 83.025c0 7.175-9.225 16.4-16.4 16.4s-15.375-9.225-15.375-16.4v-16.4h-64.575v16.4c0 44.075 35.875 79.95 79.95 79.95zM352.6 361.381h544.276v-63.55h-544.276v63.55zM128.125 169.706h128.125v-47.15l-4.1-8.2-13.325-21.525c27.675-13.325 49.2-34.85 49.2-67.65 0-44.075-35.875-79.95-79.95-79.95h-79.95v64.575h79.95c7.175 0 16.4 8.2 16.4 15.375s-9.225 16.4-16.4 16.4h-48.175v44.075l4.1 7.175 8.2 12.3h-44.075v64.575zM352.6 73.356h544.276v-63.55h-544.276v63.55z" />
<glyph unicode="&#xe81a;" glyph-name="clone-1" d="M928.651 857.994c53.3 0 96.35-43.050 96.35-96.35v-640.626c0-52.275-43.050-95.325-96.35-95.325h-95.325v-96.35c0-53.3-43.050-96.35-96.35-96.35h-640.626c-53.3 0-96.35 43.050-96.35 96.35v640.626c0 53.3 43.050 96.35 96.35 96.35h96.35v95.325c0 53.3 43.050 96.35 95.325 96.35h640.626zM724.676-70.657c7.175 0 12.3 5.125 12.3 11.275v85.075h-448.95c-52.275 0-95.325 43.050-95.325 95.325v448.95h-84.050c-7.175 0-12.3-5.125-12.3-12.3v-617.051c0-6.15 5.125-11.275 12.3-11.275h616.026zM917.376 121.018c6.15 0 11.275 6.15 11.275 12.3v617.051c0 6.15-5.125 11.275-11.275 11.275h-617.051c-6.15 0-12.3-5.125-12.3-11.275v-617.051c0-6.15 6.15-12.3 12.3-12.3h617.051z" />
<glyph unicode="&#xe81b;" glyph-name="plus-square-o" d="M159.9 698.094h705.201v-705.201h-705.201v705.201zM224.475 633.519v-576.051h576.051v576.051h-576.051zM480.725 505.394h63.55v-128.125h128.125v-63.55h-128.125v-128.125h-63.55v128.125h-128.125v63.55h128.125v128.125z" />
<glyph unicode="&#xe81c;" glyph-name="rotate-left" d="M480.725 761.644h31.775v-63.55h-31.775v63.55zM411.025 748.319l18.45-61.5-24.6-7.175-2.050-1.025-22.55-8.2-2.050-1.025h-1.025l-26.65 58.425 3.075 1.025 1.025 1.025h1.025l26.65 10.25h1.025l1.025 1.025zM640.626 729.869h256.25v-63.55h-116.85c91.225-76.875 148.625-190.65 148.625-320.825 0-228.575-187.575-416.15-416.15-416.15s-416.15 187.575-416.15 416.15v31.775h63.55v-31.775c0-193.725 158.875-352.6 352.6-352.6s352.6 158.875 352.6 352.6c0 126.075-63.55 231.65-159.9 295.2v-167.075h-64.575v256.25zM293.15 698.094l33.825-54.325-14.35-10.25-2.050-1.025-18.45-13.325-2.050-1.025-7.175-6.15-42.025 48.175 9.225 8.2h2.050l22.55 17.425h1.025l1.025 1.025zM194.75 615.069l49.2-42.025-7.175-8.2v-1.025l-14.35-19.475-2.050-2.050-9.225-14.35-54.325 34.85 11.275 17.425 1.025 1.025v1.025l17.425 21.525 2.050 2.050zM127.1 505.394l58.425-26.65v-1.025l-1.025-2.050-8.2-21.525-1.025-2.050-7.175-25.625-60.475 17.425 6.15 26.65 1.025 2.050v1.025l10.25 25.625v1.025l1.025 1.025z" />
<glyph unicode="&#xe81d;" glyph-name="tv" horiz-adv-x="1281" d="M1184.901 857.994c53.3 0 96.35-43.050 96.35-96.35v-640.626c0-52.275-43.050-95.325-96.35-95.325h-469.45v-64.575h319.8c35.875 0 64.575-28.7 64.575-64.575s-28.7-63.55-64.575-63.55h-768.751c-35.875 0-63.55 28.7-63.55 63.55s27.675 64.575 63.55 64.575h320.825v64.575h-490.975c-53.3 0-96.35 43.050-96.35 95.325v640.626c0 53.3 43.050 96.35 96.35 96.35h1088.551zM1153.126 153.818v576.051h-1025.001v-576.051h1025.001z" />
<glyph unicode="&#xe878;" glyph-name="shopping-bag-2" d="M512.5 762.157c-88.15 0-159.9-72.775-159.9-159.9v-32.8h-157.85l-2.050-29.725-32.8-576.051-2.050-34.85h709.301l-2.050 34.85-31.775 576.051-2.050 29.725h-158.875v32.8c0 87.125-71.75 159.9-159.9 159.9zM512.5 697.581c52.275 0 96.35-44.075 96.35-95.325v-32.8h-192.7v32.8c0 51.25 44.075 95.325 96.35 95.325zM254.2 505.906h98.4v-96.35h63.55v96.35h192.7v-96.35h63.55v96.35h98.4l27.675-512.5h-571.951z" />
<glyph unicode="&#xe900;" glyph-name="5" d="M0 352c0-282.327 229.683-512 512-512s512 229.683 512 512c0 282.317-229.683 512-512 512s-512-229.673-512-512zM69.816 352c0 243.825 198.359 442.184 442.184 442.184s442.184-198.359 442.184-442.184c0-243.825-198.359-442.184-442.184-442.184s-442.184 198.359-442.184 442.184zM658.913 352.645l-363.643 317.676v-636.641l363.643 317.686v-240.804h69.806v482.898h-69.806v-240.814zM553.482 352l-188.396-164.577v329.175l188.396-164.598z" />
<glyph unicode="&#xe901;" glyph-name="1" d="M512.081-4.962c-238.295 0-440.34 107.837-448.696 237.384h-63.386v-198.461h63.099v56.044l14.182-13.722c93.051-90.378 255.611-144.343 434.79-144.343 282.522 0 504.832 131.277 511.918 300.483h-63.222c-8.346-129.546-210.401-237.384-448.686-237.384zM960.9 470.901v-56.023l-14.182 13.691c-31.058 30.188-70.359 55.869-114.985 77.22v120.955l-18.176 7.25-290.673 130.816-10.885 7.25-10.885-7.25-290.662-130.806-18.176-7.25v-119.921c-114.545-54.538-188.242-138.271-192.276-234.383h63.222c3.994 62.239 53.074 119.265 129.055 161.946v-174.592l14.551-9.144 290.673-161.659 14.5-7.229 14.551 7.24 290.632 161.659 14.551 9.144v174.459c75.858-42.639 124.846-99.625 128.891-161.823h63.375v198.451h-63.099zM482.938 165.329l-232.54 127.16v268.861l232.54-116.265v-279.757zM511.999 495.948l-223.447 112.62 223.447 98.12 223.447-98.12-223.447-112.62zM773.6 292.489l-232.54-127.16v279.747l232.54 116.265v-268.851z" />
<glyph unicode="&#xe902;" glyph-name="2" d="M922.322 818.969h-820.685c-56.054 0-101.642-47.667-101.642-106.332v-721.326c0-58.563 45.588-106.281 101.642-106.281h820.695c56.105 0 101.673 47.718 101.673 106.281v721.326c-0.010 58.665-45.568 106.332-101.683 106.332zM689.823 733.639h101.642l-73.636-197.55h-101.642l73.636 197.55zM497.137 733.639h101.642l-73.636-197.55h-101.642l73.636 197.55zM304.44 733.639h101.642l-73.636-197.55h-101.642l73.636 197.55zM85.325 712.637c0 11.387 7.465 21.002 16.302 21.002h111.749l-73.636-197.55h-54.415v176.548zM938.665-8.7c0-11.336-7.455-20.941-16.343-20.941h-820.685c-8.837 0-16.302 9.605-16.302 20.941v459.448h853.33v-459.448zM938.665 536.079h-129.782l73.636 197.55h39.803c8.888 0 16.343-9.615 16.343-21.002v-176.548zM401.075 406.409v-395.786l299.776 198.001-299.776 197.786zM475.029 269.019l91.607-60.396-91.607-60.539v120.934z" />
<glyph unicode="&#xe903;" glyph-name="3" d="M512 864c-282.317 0-512-229.673-512-512s229.683-512 512-512 512 229.683 512 512c0 282.327-229.683 512-512 512zM512-90.184c-243.825 0-442.184 198.359-442.184 442.184s198.359 442.184 442.184 442.184 442.184-198.359 442.184-442.184c0-243.825-198.359-442.184-442.184-442.184zM365.087 593.459h-69.816v-482.898h69.816v240.804l363.643-317.686v636.641l-363.643-317.676v240.814zM658.913 516.598v-329.175l-188.385 164.577 188.385 164.598z" />
<glyph unicode="&#xe904;" glyph-name="4" d="M512 864.016c-282.368 0-512-229.683-512-512 0-282.286 229.632-512.031 512-512.031 282.266 0 512 229.745 512 512.031 0 282.317-229.734 512-512 512zM512-90.198c-243.825 0-442.184 198.359-442.184 442.214 0 243.814 198.359 442.184 442.184 442.184s442.184-198.369 442.184-442.184c0-243.855-198.359-442.214-442.184-442.214zM376.361 33.726l364.37 318.29-364.37 318.31v-636.6zM446.177 516.604l188.406-164.588-188.406-164.567v329.155z" />
<glyph unicode="&#xec2c;" glyph-name="play" horiz-adv-x="897" d="M849.854 428.795l-705.201 416.15c-56.375 33.825-144.525 1.025-144.525-83.025v-832.301c0-75.85 82-120.95 144.525-83.025l705.201 416.15c62.525 37.925 62.525 129.15 0 166.050z" />
<glyph unicode="&#xec2d;" glyph-name="check-1" d="M348.5-21.457l-333.125 333.125c-20.5 19.475-20.5 52.275 0 72.775l71.75 71.75c20.5 20.5 53.3 20.5 72.775 0l224.475-224.475 480.725 480.725c20.5 20.5 52.275 20.5 72.775 0l71.75-71.75c20.5-20.5 20.5-53.3 0-72.775l-589.376-589.376c-19.475-20.5-52.275-20.5-71.75 0z" />
<glyph unicode="&#xf001;" glyph-name="music" d="M1025.001 794.411v-705.201c0-70.725-86.1-128.125-191.675-128.125s-192.7 57.4-192.7 128.125 86.1 128.125 192.7 128.125c22.55 0 43.050-3.075 63.55-8.2v370.025l-512.5-150.675v-467.4c0-70.725-86.1-128.125-191.675-128.125s-192.7 57.4-192.7 128.125 86.1 128.125 192.7 128.125c22.55 0 43.050-3.075 63.55-8.2v523.775c0 27.675 18.45 52.275 45.1 61.5l640.626 188.6c41 13.325 83.025-17.425 83.025-60.475z" />
<glyph unicode="&#xf06b;" glyph-name="gift-1" d="M64.575-38.882v256.25h384.375v-320.825h-320.825c-35.875 0-63.55 28.7-63.55 64.575zM577.076-103.457v320.825h384.375v-256.25c0-35.875-28.7-64.575-64.575-64.575h-319.8zM961.451 538.194c34.85 0 63.55-28.7 63.55-64.575v-159.9c0-17.425-14.35-31.775-31.775-31.775h-961.451c-17.425 0-31.775 14.35-31.775 31.775v159.9c0 35.875 28.7 64.575 64.575 64.575h88.15c-13.325 23.575-20.5 50.225-20.5 79.95 0 96.35 78.925 176.3 176.3 176.3 83.025 0 137.35-43.050 206.025-137.35 68.675 94.3 123 137.35 206.025 137.35 97.375 0 176.3-79.95 176.3-176.3 0-29.725-8.2-56.375-20.5-79.95h85.075zM308.525 538.194h172.2c-103.525 152.725-132.225 159.9-172.2 159.9-45.1 0-79.95-35.875-79.95-79.95s34.85-79.95 79.95-79.95zM720.576 538.194c44.075 0 79.95 35.875 79.95 79.95s-35.875 79.95-79.95 79.95c-41 0-69.7-7.175-172.2-159.9h172.2z" />
<glyph unicode="&#xf081;" glyph-name="twitter-square" horiz-adv-x="897" d="M800.526 794.444c53.3 0 96.35-43.050 96.35-96.35v-705.201c0-53.3-43.050-96.35-96.35-96.35h-704.176c-53.3 0-96.35 43.050-96.35 96.35v705.201c0 53.3 43.050 96.35 96.35 96.35h704.176zM703.151 475.669c25.625 19.475 48.175 42.025 65.6 68.675-23.575-10.25-49.2-17.425-75.85-20.5 27.675 16.4 48.175 42.025 57.4 71.75-24.6-14.35-53.3-25.625-83.025-30.75-23.575 25.625-57.4 41-95.325 41-79.95 0-146.575-72.775-128.125-160.925-109.675 5.125-206.025 57.4-270.6 137.35-12.3-19.475-18.45-42.025-18.45-66.625v0c0-38.95 26.65-88.15 58.425-109.675-21.525 1.025-42.025 7.175-59.45 16.4v-1.025c0-63.55 45.1-116.85 105.575-129.15-20.5-5.125-38.95-5.125-59.45-2.050 16.4-52.275 65.6-90.2 123-91.225-45.1-34.85-101.475-56.375-162.975-56.375-11.275 0-21.525 1.025-31.775 2.050 58.425-37.925 127.1-59.45 201.925-59.45 240.875 0 373.1 199.875 373.1 374.125 0 5.125 0 11.275 0 16.4z" />
<glyph unicode="&#xf082;" glyph-name="facebook-square" horiz-adv-x="897" d="M896.876 698.094v-705.201c0-53.3-43.050-96.35-96.35-96.35h-170.15v355.675h120.95l17.425 135.3h-138.375v86.1c0 38.95 10.25 65.6 66.625 65.6h71.75v120.95c-12.3 2.050-54.325 6.15-104.55 6.15-103.525 0-174.25-63.55-174.25-179.375v-100.45h-121.975v-135.3h121.975v-354.65h-393.6c-53.3 0-96.35 43.050-96.35 96.35v705.201c0 53.3 43.050 96.35 96.35 96.35h704.176c53.3 0 96.35-43.050 96.35-96.35z" />
<glyph unicode="&#xf08c;" glyph-name="linkedin" horiz-adv-x="897" d="M833.326 794.444c34.85 0 63.55-29.725 63.55-65.6v-766.701c0-35.875-28.7-65.6-63.55-65.6h-769.776c-34.85 0-63.55 29.725-63.55 65.6v766.701c0 35.875 28.7 65.6 63.55 65.6h769.776zM271.625 25.693v0 427.425h-133.25v-427.425h133.25zM205 511.544c42.025 0 76.875 34.85 76.875 76.875 0 43.050-34.85 77.9-76.875 77.9-43.050 0-77.9-34.85-77.9-77.9s34.85-76.875 77.9-76.875zM769.776 25.693v233.7c0 115.825-25.625 203.975-159.9 203.975-64.575 0-107.625-34.85-126.075-68.675h-2.050v58.425h-127.1v-427.425h133.25v211.15c0 56.375 10.25 109.675 79.95 109.675 67.65 0 68.675-63.55 68.675-112.75v-208.075h133.25z" />
<glyph unicode="&#xf092;" glyph-name="github-square" horiz-adv-x="897" d="M800.526 794.444c53.3 0 96.35-43.050 96.35-96.35v-705.201c0-53.3-43.050-96.35-96.35-96.35h-704.176c-53.3 0-96.35 43.050-96.35 96.35v705.201c0 53.3 43.050 96.35 96.35 96.35h704.176zM555.551 25.693c132.225 44.075 221.4 170.15 221.4 316.725 0 184.5-148.625 323.9-333.125 323.9s-323.9-139.4-323.9-323.9c0-146.575 92.25-272.65 224.475-316.725 17.425-3.075 22.55 7.175 22.55 16.4 0 8.2 0 53.3 0 80.975 0 0-93.275-19.475-112.75 39.975 0 0-14.35 37.925-35.875 48.175 0 0-30.75 20.5 2.050 20.5 0 0 32.8-3.075 51.25-34.85 28.7-51.25 76.875-35.875 96.35-27.675 3.075 21.525 11.275 35.875 21.525 45.1-74.825 8.2-149.65 18.45-149.65 146.575 0 35.875 10.25 54.325 31.775 77.9-4.1 8.2-15.375 44.075 3.075 90.2 27.675 8.2 91.225-35.875 91.225-35.875 26.65 7.175 55.35 11.275 84.050 11.275 27.675 0 56.375-4.1 83.025-11.275 0 0 63.55 44.075 91.225 35.875 18.45-46.125 7.175-82 4.1-90.2 20.5-23.575 33.825-42.025 33.825-77.9 0-128.125-77.9-138.375-151.7-146.575 11.275-10.25 22.55-30.75 22.55-61.5 0-45.1-1.025-100.45-1.025-110.7 0-9.225 6.15-19.475 23.575-16.4zM358.75 147.668c-4.1 0-7.175 1.025-8.2 4.1 0 3.075 3.075 5.125 6.15 6.15 4.1 0 8.2-1.025 8.2-4.1 0-2.050-2.050-5.125-6.15-6.15zM339.275 149.718c0 3.075-3.075 5.125-7.175 5.125s-7.175-2.050-7.175-5.125c0-3.075 3.075-5.125 8.2-4.1 4.1 0 6.15 2.050 6.15 4.1zM312.625 151.768c-1.025-2.050-5.125-3.075-8.2-2.050-4.1 1.025-7.175 4.1-6.15 6.15 1.025 3.075 5.125 4.1 8.2 3.075 4.1-1.025 7.175-4.1 6.15-7.175zM288.025 163.043c1.025 1.025 0 5.125-2.050 8.2-3.075 3.075-7.175 3.075-8.2 1.025-2.050-2.050-2.050-5.125 1.025-8.2s7.175-3.075 9.225-1.025zM269.575 181.493c2.050 1.025 2.050 5.125 0 8.2s-5.125 4.1-7.175 2.050c-2.050-1.025-2.050-4.1 0-7.175s5.125-4.1 7.175-3.075zM256.25 200.969c2.050 1.025 2.050 4.1-1.025 6.15-2.050 2.050-5.125 3.075-6.15 2.050-2.050-2.050-2.050-5.125 0-7.175 3.075-2.050 5.125-3.075 7.175-1.025zM242.925 215.319c1.025 2.050 0 4.1-3.075 5.125-2.050 1.025-4.1 1.025-5.125-1.025-1.025-1.025 0-4.1 3.075-5.125 2.050-1.025 4.1-1.025 5.125 1.025z" />
<glyph unicode="&#xf099;" glyph-name="twitter" horiz-adv-x="1023" d="M918.425 554.594c1.025-9.225 1.025-18.45 1.025-27.675 0-277.775-211.15-597.576-597.576-597.576-118.9 0-229.6 33.825-322.875 94.3 17.425-2.050 32.8-3.075 51.25-3.075 97.375 0 188.6 33.825 260.35 90.2-92.25 2.050-170.15 62.525-196.8 145.55 13.325-2.050 26.65-3.075 39.975-3.075 18.45 0 37.925 2.050 55.35 7.175-96.35 19.475-168.1 103.525-168.1 206.025v3.075c27.675-16.4 60.475-25.625 94.3-26.65-56.375 36.9-93.275 101.475-93.275 174.25 0 38.95 10.25 74.825 28.7 106.6 103.525-128.125 258.3-211.15 432.55-220.375-3.075 15.375-5.125 31.775-5.125 48.175 0 115.825 94.3 210.125 210.125 210.125 60.475 0 115.825-25.625 153.75-66.625 47.15 9.225 93.275 26.65 133.25 51.25-15.375-49.2-48.175-90.2-92.25-115.825 42.025 4.1 83.025 16.4 120.95 32.8-28.7-42.025-64.575-78.925-105.575-108.65z" />
<glyph unicode="&#xf09a;" glyph-name="facebook" horiz-adv-x="897" d="M896.876 744.219v-797.451c0-27.675-22.55-49.2-49.2-49.2h-228.575v346.45h115.825l17.425 135.3h-133.25v87.125c0 38.95 10.25 65.6 66.625 65.6h71.75v120.95c-12.3 2.050-55.35 6.15-104.55 6.15-103.525 0-174.25-63.55-174.25-179.375v-100.45h-116.85v-135.3h116.85v-347.475h-429.475c-26.65 0-49.2 22.55-49.2 50.225v797.451c0 27.675 22.55 50.225 49.2 50.225h798.476c26.65 0 49.2-22.55 49.2-50.225z" />
<glyph unicode="&#xf09b;" glyph-name="github" horiz-adv-x="992" d="M331.472 50.262c0-4.1-4.1-7.175-10.25-7.175-7.175-1.025-11.275 2.050-11.275 7.175 0 4.1 4.1 7.175 10.25 7.175s11.275-3.075 11.275-7.175zM268.947 59.487c2.050 4.1 7.175 6.15 12.3 4.1 6.15-2.050 10.25-6.15 9.225-10.25s-7.175-6.15-12.3-4.1c-6.15 1.025-10.25 6.15-9.225 10.25zM358.122 62.562c5.125 1.025 11.275-2.050 11.275-6.15 1.025-4.1-3.075-7.175-9.225-9.225-6.15-1.025-11.275 2.050-11.275 5.125-1.025 5.125 3.075 9.225 9.225 10.25zM489.322 829.263c277.775 0 503.275-210.125 503.275-487.9 0-222.425-136.325-412.050-336.2-478.675-25.625-5.125-34.85 11.275-34.85 24.6 0 16.4 1.025 99.425 1.025 167.075 0 47.15-15.375 76.875-33.825 93.275 111.725 12.3 229.6 27.675 229.6 220.375 0 55.35-19.475 83.025-52.275 117.875 6.15 13.325 22.55 66.625-5.125 136.325-41 13.325-137.35-54.325-137.35-54.325-39.975 11.275-83.025 17.425-126.075 17.425s-86.1-6.15-126.075-17.425c0 0-96.35 67.65-137.35 54.325-27.675-68.675-11.275-123-6.15-136.325-31.775-34.85-47.15-62.525-47.15-117.875 0-191.675 113.775-208.075 225.5-220.375-14.35-13.325-27.675-35.875-32.8-67.65-27.675-13.325-101.475-35.875-145.55 42.025-27.675 47.15-76.875 51.25-76.875 51.25-49.2 1.025-3.075-30.75-3.075-30.75 32.8-15.375 55.35-73.8 55.35-73.8 29.725-89.175 169.125-59.45 169.125-59.45 0-42.025 1.025-110.7 1.025-123s-9.225-28.7-34.85-23.575c-199.875 66.625-339.275 256.25-339.275 478.675 0 277.775 212.175 487.9 489.95 487.9zM194.122 139.437c2.050 2.050 7.175 1.025 10.25-2.050 3.075-4.1 4.1-8.2 1.025-10.25-2.050-3.075-7.175-1.025-10.25 2.050s-4.1 8.2-1.025 10.25zM172.597 155.837c1.025 2.050 4.1 2.050 8.2 1.025 4.1-2.050 6.15-5.125 5.125-8.2-2.050-2.050-6.15-3.075-9.225-1.025-4.1 2.050-6.15 5.125-4.1 8.2zM237.172 84.087c3.075 3.075 8.2 3.075 13.325-2.050 4.1-4.1 5.125-9.225 2.050-12.3-2.050-3.075-8.2-3.075-12.3 2.050-5.125 4.1-6.15 10.25-3.075 12.3zM214.622 113.812c3.075 2.050 8.2 0 11.275-4.1 3.075-5.125 3.075-10.25 0-12.3s-8.2 0-11.275 4.1c-3.075 5.125-3.075 10.25 0 12.3z" />
<glyph unicode="&#xf0d2;" glyph-name="pinterest" horiz-adv-x="992" d="M992.597 345.494c0-274.7-222.425-496.1-497.125-496.1-51.25 0-100.45 7.175-146.575 21.525 20.5 32.8 50.225 87.125 61.5 130.175 6.15 23.575 30.75 118.9 30.75 118.9 16.4-31.775 63.55-57.4 113.775-57.4 149.65 0 258.3 137.35 258.3 308.525 0 164-134.275 287-306.475 287-214.225 0-328-143.5-328-300.325 0-72.775 38.95-164 100.45-192.7 9.225-4.1 14.35-2.050 16.4 7.175 2.050 6.15 10.25 39.975 14.35 55.35 1.025 5.125 0 10.25-4.1 14.35-19.475 25.625-35.875 70.725-35.875 113.775 0 109.675 83.025 215.25 223.45 215.25 121.975 0 208.075-83.025 208.075-201.925 0-134.275-67.65-227.55-156.825-227.55-48.175 0-85.075 39.975-72.775 90.2 13.325 58.425 41 121.975 41 165.025 0 37.925-20.5 69.7-62.525 69.7-50.225 0-90.2-51.25-90.2-120.95 0-44.075 14.35-72.775 14.35-72.775s-49.2-208.075-57.4-247.025c-10.25-43.050-6.15-103.525-2.050-142.475-184.5 71.75-315.7 252.15-315.7 462.275 0 274.7 222.425 496.1 496.1 496.1s497.125-221.4 497.125-496.1z" />
<glyph unicode="&#xf0d3;" glyph-name="pinterest-square" horiz-adv-x="897" d="M896.876 698.094v-705.201c0-53.3-43.050-96.35-96.35-96.35h-490.975c19.475 32.8 44.075 80.975 54.325 118.9 6.15 23.575 30.75 116.85 30.75 116.85 16.4-29.725 62.525-56.375 112.75-56.375 148.625 0 255.225 136.325 255.225 306.475 0 161.95-132.225 283.925-303.4 283.925-212.175 0-324.925-142.475-324.925-298.275 0-71.75 38.95-160.925 100.45-189.625 9.225-5.125 13.325-3.075 16.4 6.15 1.025 7.175 9.225 39.975 13.325 55.35 1.025 5.125 0 9.225-3.075 14.35-20.5 24.6-36.9 69.7-36.9 111.725 0 108.65 82 214.225 221.4 214.225 120.95 0 206.025-83.025 206.025-200.9 0-132.225-67.65-224.475-154.775-224.475-48.175 0-84.050 39.975-72.775 89.175 13.325 58.425 41 120.95 41 162.975 0 106.6-151.7 92.25-151.7-49.2 0-44.075 14.35-73.8 14.35-73.8-62.525-265.475-71.75-268.55-58.425-385.4l4.1-2.050h-177.325c-53.3 0-96.35 43.050-96.35 96.35v705.201c0 53.3 43.050 96.35 96.35 96.35h704.176c53.3 0 96.35-43.050 96.35-96.35z" />
<glyph unicode="&#xf0d4;" glyph-name="google-plus-square" horiz-adv-x="897" d="M800.526 794.444c53.3 0 96.35-43.050 96.35-96.35v-705.201c0-53.3-43.050-96.35-96.35-96.35h-704.176c-53.3 0-96.35 43.050-96.35 96.35v705.201c0 53.3 43.050 96.35 96.35 96.35h704.176zM328 145.618c115.825 0 192.7 80.975 192.7 194.75 0 13.325-1.025 23.575-3.075 33.825h-189.625v-68.675h113.775c-4.1-29.725-33.825-87.125-112.75-87.125-68.675 0-124.025 57.4-124.025 127.1s55.35 126.075 124.025 126.075c38.95 0 64.575-16.4 78.925-30.75l54.325 52.275c-34.85 32.8-79.95 52.275-134.275 52.275-110.7 0-199.875-89.175-199.875-199.875s89.175-199.875 199.875-199.875zM768.751 309.619v58.425h-58.425v57.4h-58.425v-57.4h-57.4v-58.425h57.4v-58.425h58.425v58.425h58.425z" />
<glyph unicode="&#xf0d5;" glyph-name="google-plus-g" horiz-adv-x="1281" d="M772.851 400.844c4.1-19.475 6.15-38.95 6.15-64.575 0-219.35-147.6-375.15-369-375.15-212.175 0-384.375 172.2-384.375 384.375s172.2 384.375 384.375 384.375c103.525 0 190.65-37.925 257.275-100.45l-104.55-100.45c-27.675 27.675-77.9 59.45-152.725 59.45-131.2 0-237.8-108.65-237.8-242.925s106.6-242.925 237.8-242.925c151.7 0 209.1 109.675 218.325 166.050h-218.325v132.225h362.85zM1143.901 387.519h111.725v-111.725h-111.725v-111.725h-111.725v111.725h-111.725v111.725h111.725v111.725h111.725v-111.725z" />
<glyph unicode="&#xf0e1;" glyph-name="linkedin-in" horiz-adv-x="897" d="M200.9-102.944h-185.525v598.601h185.525v-598.601zM107.625 577.656c-59.45 0-107.625 49.2-107.625 108.65s48.175 107.625 107.625 107.625 107.625-48.175 107.625-107.625-48.175-108.65-107.625-108.65zM896.876-102.944h-185.525v291.1c0 69.7-1.025 158.875-96.35 158.875-97.375 0-111.725-75.85-111.725-153.75v-296.225h-185.525v598.601h178.35v-80.975h2.050c24.6 46.125 86.1 96.35 176.3 96.35 187.575 0 222.425-124.025 222.425-284.95v-329.025z" />
<glyph unicode="&#xf109;" glyph-name="laptop" horiz-adv-x="1281" d="M1249.476 25.693c17.425 0 31.775-15.375 31.775-32.8v-31.775c0-70.725-57.4-128.125-128.125-128.125h-1025.001c-70.725 0-128.125 57.4-128.125 128.125v31.775c0 17.425 14.35 32.8 31.775 32.8h479.7c-1.025-29.725 27.675-64.575 65.6-64.575h120.95c36.9 0 64.575 24.6 65.6 64.575h485.85zM1153.126 761.644v-672.401h-1025.001v672.401c0 53.3 43.050 96.35 96.35 96.35h832.301c53.3 0 96.35-43.050 96.35-96.35zM1025.001 217.369v512.5h-768.751v-512.5h768.751z" />
<glyph unicode="&#xf10d;" glyph-name="quote-left" horiz-adv-x="951" d="M439.093 271.694v-219.35q0-46.125-32.8-77.9t-77.9-31.775h-219.35q-45.1 0-77.9 31.775t-31.775 77.9v402.825q0 59.45 23.575 113.775t62.525 93.275 93.275 62.525 113.775 23.575h35.875q15.375 0 26.65-11.275t10.25-25.625v-73.8q0-14.35-10.25-25.625t-26.65-10.25h-35.875q-60.475 0-103.525-43.050t-43.050-103.525v-18.45q0-22.55 16.4-38.95t37.925-16.4h128.125q46.125 0 77.9-31.775t32.8-77.9zM951.593 271.694v-219.35q0-46.125-32.8-77.9t-77.9-31.775h-219.35q-45.1 0-77.9 31.775t-31.775 77.9v402.825q0 59.45 23.575 113.775t62.525 93.275 93.275 62.525 113.775 23.575h35.875q15.375 0 26.65-11.275t10.25-25.625v-73.8q0-14.35-10.25-25.625t-26.65-10.25h-35.875q-60.475 0-103.525-43.050t-43.050-103.525v-18.45q0-22.55 16.4-38.95t37.925-16.4h128.125q46.125 0 77.9-31.775t32.8-77.9z" />
<glyph unicode="&#xf10e;" glyph-name="quote-right" horiz-adv-x="951" d="M439.093 637.619v-401.8q0-59.45-23.575-113.775t-62.525-93.275-93.275-62.525-113.775-23.575h-36.9q-14.35 0-25.625 11.275t-11.275 25.625v72.775q0 15.375 11.275 25.625t25.625 11.275h36.9q60.475 0 103.525 43.050t43.050 103.525v17.425q0 23.575-16.4 38.95t-38.95 16.4h-128.125q-45.1 0-77.9 31.775t-31.775 77.9v219.35q0 46.125 31.775 77.9t77.9 32.8h219.35q46.125 0 77.9-32.8t32.8-77.9zM951.593 637.619v-401.8q0-59.45-23.575-113.775t-62.525-93.275-93.275-62.525-113.775-23.575h-36.9q-14.35 0-25.625 11.275t-11.275 25.625v72.775q0 15.375 11.275 25.625t25.625 11.275h36.9q60.475 0 103.525 43.050t43.050 103.525v17.425q0 23.575-16.4 38.95t-38.95 16.4h-128.125q-45.1 0-77.9 31.775t-31.775 77.9v219.35q0 46.125 31.775 77.9t77.9 32.8h219.35q46.125 0 77.9-32.8t32.8-77.9z" />
<glyph unicode="&#xf110;" glyph-name="angle-down" d="M135.3 579.706l377.2-377.2 377.2 377.2 46.125-46.125-399.75-399.75-23.575-22.55-22.55 22.55-400.775 399.75z" />
<glyph unicode="&#xf111;" glyph-name="angle-left" d="M676.501 720.644l46.125-46.125-330.050-329.025 330.050-329.025-46.125-46.125-352.6 352.6-21.525 22.55 21.525 23.575z" />
<glyph unicode="&#xf112;" glyph-name="angle-right" d="M347.988 720.644l352.6-351.575 22.55-23.575-375.15-375.15-46.125 46.125 330.050 329.025-330.050 329.025z" />
<glyph unicode="&#xf113;" glyph-name="github-alt" horiz-adv-x="960" d="M372.344 199.954c0-42.025-22.55-110.7-73.8-110.7-52.275 0-73.8 68.675-73.8 110.7s21.525 110.7 73.8 110.7c51.25 0 73.8-68.675 73.8-110.7zM960.694 301.429c0-64.575-7.175-132.225-35.875-190.65-75.85-153.75-283.925-149.65-433.575-149.65-151.7 0-373.1-5.125-451 149.65-29.725 58.425-41 126.075-41 190.65 0 84.050 27.675 162.975 83.025 227.55-10.25 30.75-15.375 64.575-15.375 97.375 0 43.050 10.25 64.575 29.725 103.525 90.2 0 148.625-18.45 217.3-71.75 58.425 13.325 117.875 19.475 177.325 19.475 54.325 0 108.65-5.125 160.925-18.45 68.675 53.3 126.075 70.725 216.275 70.725 19.475-38.95 28.7-60.475 28.7-103.525 0-32.8-5.125-65.6-15.375-96.35 55.35-65.6 78.925-144.525 78.925-228.575zM831.544 199.954c0 88.15-53.3 165.025-147.6 165.025-37.925 0-73.8-6.15-111.725-11.275-29.725-5.125-59.45-7.175-90.2-7.175s-60.475 2.050-90.2 7.175c-37.925 5.125-73.8 11.275-112.75 11.275-93.275 0-146.575-76.875-146.575-165.025 0-175.275 160.925-202.95 301.35-202.95h96.35c140.425 0 301.35 26.65 301.35 202.95zM666.519 310.654c51.25 0 72.775-68.675 72.775-110.7s-21.525-110.7-72.775-110.7c-52.275 0-73.8 68.675-73.8 110.7s21.525 110.7 73.8 110.7z" />
<glyph unicode="&#xf11f;" glyph-name="arrow-down" d="M480.725 728.332h63.55v-642.676l217.3 217.3 46.125-46.125-271.625-272.65-23.575-21.525-22.55 21.525-272.65 272.65 46.125 46.125 217.3-217.3v642.676z" />
<glyph unicode="&#xf120;" glyph-name="arrow-left" d="M423.838 640.694l46.125-46.125-217.3-217.3h642.676v-63.55h-642.676l217.3-217.3-46.125-46.125-272.65 272.65-21.525 22.55 21.525 23.575z" />
<glyph unicode="&#xf121;" glyph-name="arrow-right" d="M601.163 640.694l272.65-271.625 21.525-23.575-21.525-22.55-272.65-272.65-46.125 46.125 217.3 217.3h-642.676v63.55h642.676l-217.3 217.3z" />
<glyph unicode="&#xf122;" glyph-name="arrow-up" d="M512.5 728.332l23.575-21.525 271.625-272.65-46.125-46.125-217.3 217.3v-642.676h-63.55v642.676l-217.3-217.3-46.125 46.125 272.65 272.65z" />
<glyph unicode="&#xf123;" glyph-name="arrows" d="M128.125 729.869h288.025v-63.55h-178.35l274.7-274.7 274.7 274.7h-178.35v63.55h288.025v-288.025h-63.55v178.35l-274.7-274.7 274.7-274.7v178.35h63.55v-288.025h-288.025v64.575h178.35l-274.7 273.675-274.7-273.675h178.35v-64.575h-288.025v288.025h64.575v-178.35l273.675 274.7-273.675 274.7v-178.35h-64.575v288.025z" />
<glyph unicode="&#xf12b;" glyph-name="balance-scale" d="M512.5 681.694c41 0 76.875-27.675 90.2-64.575h230.625v-63.55h-45.1l8.2-16.4 132.225-231.65v-8.2c0-88.15-71.75-159.9-159.9-159.9s-159.9 71.75-159.9 159.9v8.2l4.1 7.175 128.125 224.475 8.2 16.4h-146.575c-10.25-26.65-30.75-48.175-58.425-58.425v-422.3h128.125v-63.55h-319.8v63.55h128.125v422.3c-27.675 10.25-48.175 30.75-58.425 58.425h-146.575l8.2-16.4 132.225-231.65v-8.2c0-88.15-71.75-159.9-159.9-159.9s-159.9 71.75-159.9 159.9v8.2l4.1 7.175 128.125 224.475 8.2 16.4h-44.075v63.55h229.6c13.325 36.9 49.2 64.575 90.2 64.575zM512.5 617.119c-18.45 0-31.775-13.325-31.775-31.775s13.325-31.775 31.775-31.775 31.775 13.325 31.775 31.775-13.325 31.775-31.775 31.775zM256.25 456.194l-72.775-127.1h145.55zM768.751 456.194l-72.775-127.1h145.55zM168.1 265.544c13.325-37.925 46.125-64.575 88.15-64.575s74.825 26.65 88.15 64.575h-176.3zM680.601 265.544c13.325-37.925 46.125-64.575 88.15-64.575s74.825 26.65 88.15 64.575h-176.3z" />
<glyph unicode="&#xf131;" glyph-name="bars" d="M128.125 633.519h768.751v-63.55h-768.751v63.55zM128.125 377.269h768.751v-63.55h-768.751v63.55zM128.125 121.018h768.751v-63.55h-768.751v63.55z" />
<glyph unicode="&#xf136;" glyph-name="maxcdn" horiz-adv-x="1023" d="M922.58-28.632h-195.775l104.55 485.85c4.1 20.5 2.050 39.975-9.225 52.275-10.25 12.3-27.675 18.45-48.175 18.45h-98.4l-119.925-556.576h-194.75l118.9 556.576h-167.075l-118.9-556.576h-194.75l118.9 556.576-89.175 191.675h745.176c78.925 0 150.675-32.8 196.8-90.2s63.55-135.3 47.15-212.175z" />
<glyph unicode="&#xf13b;" glyph-name="html5" horiz-adv-x="769" d="M0 794.444h768.751l-69.7-792.326-315.7-105.575-313.65 105.575zM617.051 538.194l9.225 95.325h-482.775l25.625-291.1h334.15l-12.3-125.050-107.625-28.7-106.6 28.7-7.175 75.85h-95.325l11.275-151.7 197.825-54.325h2.050v1.025l195.775 53.3 27.675 297.25h-351.575l-8.2 99.425h367.975z" />
<glyph unicode="&#xf13c;" glyph-name="css3" horiz-adv-x="960" d="M960.694 794.444l-128.125-736.976-447.925-160.925-385.4 160.925 38.95 189.625h164l-15.375-80.975 232.675-89.175 268.55 89.175 37.925 193.725h-667.276l31.775 164h668.301l20.5 105.575h-667.276l32.8 165.025h815.901z" />
<glyph unicode="&#xf145;" glyph-name="binoculars" d="M352.6 713.981c59.45 0 107.625-41 121.975-96.35h75.85c14.35 55.35 62.525 96.35 121.975 96.35 63.55 0 113.775-46.125 124.025-106.6 61.5-15.375 112.75-55.35 136.325-111.725v-1.025l1.025-1.025 72.775-203.975c12.3-27.675 18.45-57.4 18.45-88.15 0-124.025-100.45-224.475-224.475-224.475-110.7 0-203.975 82-221.4 188.6-16.4-17.425-41-28.7-66.625-28.7s-49.2 11.275-66.625 28.7c-17.425-106.6-110.7-188.6-221.4-188.6-124.025 0-224.475 100.45-224.475 224.475 0 34.85 8.2 68.675 23.575 98.4l67.65 190.65h1.025c22.55 62.525 75.85 101.475 136.325 116.85 10.25 60.475 60.475 106.6 124.025 106.6zM352.6 649.406c-37.925 0-64.575-25.625-64.575-63.55v-29.725l-28.7-2.050c-49.2-6.15-88.15-34.85-107.625-84.050v-1.025l-23.575-65.6c28.7 14.35 61.5 22.55 96.35 22.55 93.275 0 173.225-58.425 207.050-140.425 17.425 26.65 47.15 44.075 80.975 44.075s63.55-17.425 80.975-44.075c33.825 82 113.775 140.425 207.050 140.425 34.85 0 67.65-9.225 97.375-23.575l-23.575 67.65c-1.025 1.025-1.025 2.050-1.025 2.050-18.45 43.050-59.45 76.875-107.625 82l-28.7 2.050v29.725c0 37.925-26.65 63.55-64.575 63.55s-63.55-25.625-63.55-63.55v-31.775h-192.7v31.775c0 37.925-25.625 63.55-63.55 63.55zM224.475 361.381c-64.575 0-119.925-37.925-145.55-93.275 0-1.025 0-2.050-1.025-4.1-8.2-19.475-13.325-39.975-13.325-62.525 0-89.175 70.725-159.9 159.9-159.9s159.9 70.725 159.9 159.9-71.75 159.9-159.9 159.9zM800.526 361.381c-88.15 0-159.9-71.75-159.9-159.9s71.75-159.9 159.9-159.9 160.925 70.725 160.925 159.9-71.75 159.9-160.925 159.9zM512.5 265.031c-18.45 0-31.775-13.325-31.775-31.775s13.325-31.775 31.775-31.775 31.775 13.325 31.775 31.775-13.325 31.775-31.775 31.775z" />
<glyph unicode="&#xf150;" glyph-name="bookmark-o" d="M224.475 713.981h576.051v-736.976l-51.25 37.925-236.775 178.35-236.775-178.35-51.25-37.925v736.976zM288.025 649.406v-544.276l205 153.75 19.475 14.35 19.475-14.35 205-153.75v544.276h-448.95z" />
<glyph unicode="&#xf15a;" glyph-name="btc" horiz-adv-x="767" d="M620.471 372.144c92.25-21.525 149.65-76.875 138.375-199.875-14.35-153.75-123-194.75-285.975-202.95v-136.325h-97.375v133.25c-24.6 0-50.225 0-76.875 1.025v-134.275h-96.35v136.325s-18.45 0-195.775 0l19.475 115.825c69.7-1.025 101.475-7.175 106.6 32.8v434.6c-9.225 49.2-49.2 44.075-126.075 43.050v103.525c117.875-1.025 159.9-1.025 195.775 0v158.875h96.35v-155.8c26.65 1.025 52.275 1.025 76.875 1.025v154.775h97.375v-158.875c125.050-11.275 219.35-49.2 230.625-164 8.2-84.050-27.675-134.275-83.025-162.975zM300.671 588.419v-193.725c55.35 0 226.525-12.3 226.525 96.35 0 114.8-171.175 97.375-226.525 97.375zM300.671 85.143c65.6 0 266.5-14.35 266.5 106.6 0 124.025-200.9 106.6-266.5 106.6v-213.2z" />
<glyph unicode="&#xf15c;" glyph-name="calendar" d="M288.025 713.981h64.575v-31.775h319.8v31.775h64.575v-31.775h128.125v-705.201h-705.201v705.201h128.125v31.775zM224.475 617.631v-63.55h576.051v63.55h-63.55v-31.775h-64.575v31.775h-319.8v-31.775h-64.575v31.775h-63.55zM224.475 489.506v-447.925h576.051v447.925h-576.051zM416.15 425.956h64.575v-64.575h-64.575v64.575zM544.276 425.956h64.575v-64.575h-64.575v64.575zM672.401 425.956h64.575v-64.575h-64.575v64.575zM288.025 297.831h64.575v-64.575h-64.575v64.575zM416.15 297.831h64.575v-64.575h-64.575v64.575zM544.276 297.831h64.575v-64.575h-64.575v64.575zM672.401 297.831h64.575v-64.575h-64.575v64.575zM288.025 169.706h64.575v-64.575h-64.575v64.575zM416.15 169.706h64.575v-64.575h-64.575v64.575zM544.276 169.706h64.575v-64.575h-64.575v64.575z" />
<glyph unicode="&#xf167;" glyph-name="youtube" horiz-adv-x="1153" d="M1100.851 609.944c22.55-86.1 22.55-265.475 22.55-265.475s0-178.35-22.55-264.45c-13.325-47.15-50.225-83.025-97.375-96.35-85.075-22.55-426.4-22.55-426.4-22.55s-342.35 0-427.425 22.55c-47.15 13.325-84.050 49.2-96.35 96.35-23.575 86.1-23.575 264.45-23.575 264.45s0 179.375 23.575 265.475c12.3 47.15 49.2 84.050 96.35 97.375 85.075 22.55 427.425 22.55 427.425 22.55s341.325 0 426.4-22.55c47.15-13.325 84.050-50.225 97.375-97.375zM464.325 182.518l285.975 161.95-285.975 162.975v-324.925z" />
<glyph unicode="&#xf168;" glyph-name="xing" horiz-adv-x="769" d="M325.95 437.744c-4.1-7.175-50.225-89.175-140.425-247.025-10.25-17.425-21.525-25.625-35.875-25.625h-130.175c-15.375 0-24.6 15.375-16.4 28.7l137.35 242.925c1.025 0 1.025 1.025 0 1.025l-87.125 151.7c-9.225 15.375 0 27.675 16.4 27.675h130.175c15.375 0 26.65-8.2 36.9-24.6zM765.676 765.744l-288.025-506.35v-1.025l183.475-333.125c8.2-14.35 0-28.7-17.425-28.7h-130.175c-15.375 0-27.675 8.2-35.875 24.6l-185.525 337.225c7.175 12.3 103.525 182.45 290.075 511.475 9.225 16.4 21.525 24.6 34.85 24.6h132.225c15.375 0 24.6-14.35 16.4-28.7z" />
<glyph unicode="&#xf169;" glyph-name="xing-square" horiz-adv-x="897" d="M800.526 794.444c53.3 0 96.35-43.050 96.35-96.35v-705.201c0-53.3-43.050-96.35-96.35-96.35h-704.176c-53.3 0-96.35 43.050-96.35 96.35v705.201c0 53.3 43.050 96.35 96.35 96.35h704.176zM280.85 217.369c10.25 0 18.45 5.125 25.625 17.425 64.575 113.775 97.375 172.2 100.45 177.325l-64.575 110.7c-6.15 11.275-15.375 17.425-25.625 17.425h-93.275c-11.275 0-17.425-9.225-12.3-20.5l63.55-107.625c0-1.025 0-1.025 0-1.025l-98.4-173.225c-6.15-10.25 1.025-20.5 11.275-20.5h93.275zM720.576 645.819c6.15 10.25 0 20.5-11.275 19.475h-94.3c-10.25 0-18.45-5.125-24.6-17.425-133.25-234.725-202.95-356.7-207.050-364.9l132.225-240.875c6.15-11.275 14.35-17.425 25.625-17.425h93.275c12.3 0 17.425 10.25 12.3 20.5l-131.2 238.825z" />
<glyph unicode="&#xf16b;" glyph-name="dropbox" horiz-adv-x="1057" d="M529.029 625.319l-263.425-169.125 263.425-168.1-263.425-169.125-265.475 170.15 264.45 169.125-264.45 167.075 264.45 169.125zM263.553 65.668l264.45 169.125 264.45-169.125-264.45-169.125zM529.029 289.119l264.45 169.125-264.45 167.075 263.425 169.125 264.45-169.125-264.45-169.125 264.45-168.1-264.45-169.125z" />
<glyph unicode="&#xf16c;" glyph-name="stack-overflow" horiz-adv-x="769" d="M582.201 235.819l-16.4-78.925-391.55 83.025 16.4 77.9zM683.676 410.069l-50.225-62.525-307.5 257.275 51.25 61.5zM621.151 330.119l-32.8-72.775-362.85 169.125 32.8 72.775zM524.801 794.444l238.825-321.85-64.575-47.15-238.825 320.825zM565.801 137.418v-79.95h-400.775v79.95h400.775zM644.726-22.482v239.85h79.95v-320.825h-719.551v320.825h79.95v-239.85h559.651z" />
<glyph unicode="&#xf16d;" glyph-name="instagram" horiz-adv-x="897" d="M448.95 575.991c127.1 0 229.6-103.525 229.6-230.625s-102.5-229.6-229.6-229.6c-127.1 0-230.625 102.5-230.625 229.6s103.525 230.625 230.625 230.625zM448.95 195.715c82 0 149.65 67.65 149.65 149.65 0 83.025-67.65 149.65-149.65 149.65-83.025 0-149.65-66.625-149.65-149.65 0-82 66.625-149.65 149.65-149.65zM742.101 585.216c0-29.725-24.6-54.325-54.325-54.325s-53.3 24.6-53.3 54.325 23.575 53.3 53.3 53.3 54.325-23.575 54.325-53.3zM893.801 530.891c4.1-74.825 4.1-296.225 0-370.025-3.075-71.75-19.475-135.3-71.75-188.6-53.3-52.275-116.85-68.675-188.6-71.75-73.8-5.125-296.225-5.125-370.025 0-71.75 3.075-135.3 19.475-187.575 71.75s-69.7 116.85-72.775 188.6c-4.1 73.8-4.1 296.225 0 370.025 3.075 71.75 19.475 135.3 72.775 187.575s115.825 68.675 187.575 72.775c73.8 4.1 296.225 4.1 370.025 0 71.75-4.1 135.3-20.5 188.6-72.775 52.275-52.275 68.675-115.825 71.75-187.575zM798.476 80.915c23.575 59.45 18.45 199.875 18.45 264.45 0 65.6 5.125 206.025-18.45 264.45-15.375 39.975-46.125 69.7-85.075 85.075-59.45 23.575-199.875 18.45-264.45 18.45-65.6 0-206.025 5.125-264.45-18.45-39.975-15.375-69.7-45.1-85.075-85.075-23.575-58.425-18.45-198.85-18.45-264.45 0-64.575-5.125-205 18.45-264.45 15.375-38.95 45.1-69.7 85.075-85.075 58.425-23.575 198.85-18.45 264.45-18.45 64.575 0 205-5.125 264.45 18.45 38.95 15.375 69.7 46.125 85.075 85.075z" />
<glyph unicode="&#xf16e;" glyph-name="flickr" horiz-adv-x="897" d="M800.526 794.444c53.3 0 96.35-43.050 96.35-96.35v-705.201c0-53.3-43.050-96.35-96.35-96.35h-704.176c-53.3 0-96.35 43.050-96.35 96.35v705.201c0 53.3 43.050 96.35 96.35 96.35h704.176zM289.050 219.419c70.725 0 127.1 56.375 127.1 127.1s-56.375 127.1-127.1 127.1-127.1-56.375-127.1-127.1 57.4-127.1 127.1-127.1zM607.826 219.419c69.7 0 127.1 56.375 127.1 127.1s-57.4 127.1-127.1 127.1-127.1-56.375-127.1-127.1 56.375-127.1 127.1-127.1z" />
<glyph unicode="&#xf170;" glyph-name="adn" horiz-adv-x="992" d="M495.472 522.819l130.175-197.825h-259.325zM992.597 345.494c0-273.675-222.425-496.1-497.125-496.1s-496.1 222.425-496.1 496.1 222.425 496.1 496.1 496.1 497.125-222.425 497.125-496.1zM792.722 180.468l-297.25 445.875-296.225-445.875h60.475l67.65 103.525h337.225l67.65-103.525h60.475z" />
<glyph unicode="&#xf171;" glyph-name="bitbucket" horiz-adv-x="998" d="M31.979 794.931h933.776c2.050 0 4.1 0 6.15 0 17.425-3.075 28.7-19.475 26.65-36.9l-136.325-834.351c-2.050-16.4-16.4-27.675-31.775-27.675h-651.901c-21.525 1.025-39.975 16.4-43.050 36.9l-136.325 825.126c0 2.050 0 4.1 0 5.125 0 18.45 15.375 32.8 32.8 31.775zM603.93 199.405l50.225 294.175h-314.675l56.375-294.175h208.075z" />
<glyph unicode="&#xf173;" glyph-name="tumblr" horiz-adv-x="639" d="M619.49-103.457c-26.65-28.7-100.45-63.55-194.75-63.55-241.9 0-294.175 177.325-294.175 281.875v288.025h-95.325c-11.275 0-20.5 9.225-20.5 19.475v136.325c0 14.35 9.225 27.675 23.575 32.8 124.025 43.050 162.975 151.7 168.1 233.7 2.050 22.55 13.325 32.8 32.8 32.8h141.45c11.275 0 20.5-9.225 20.5-19.475v-230.625h166.050c11.275 0 19.475-9.225 19.475-20.5v-162.975c0-11.275-8.2-20.5-19.475-20.5h-167.075v-266.5c0-68.675 47.15-107.625 136.325-71.75 9.225 4.1 17.425 6.15 24.6 4.1 7.175-1.025 12.3-6.15 15.375-15.375l44.075-129.15c3.075-10.25 6.15-21.525-1.025-28.7z" />
<glyph unicode="&#xf174;" glyph-name="tumblr-square" horiz-adv-x="897" d="M800.526 794.444c53.3 0 96.35-43.050 96.35-96.35v-705.201c0-53.3-43.050-96.35-96.35-96.35h-704.176c-53.3 0-96.35 43.050-96.35 96.35v705.201c0 53.3 43.050 96.35 96.35 96.35h704.176zM636.526 64.643c4.1 5.125 2.050 12.3 0 18.45l-27.675 80.975c-2.050 5.125-4.1 8.2-9.225 9.225-4.1 1.025-10.25 0-15.375-3.075-56.375-21.525-85.075 2.050-85.075 45.1v167.075h103.525c7.175 0 12.3 5.125 12.3 12.3v102.5c0 6.15-5.125 12.3-12.3 12.3h-103.525v143.5c0 7.175-6.15 13.325-12.3 13.325h-89.175c-11.275 0-18.45-7.175-19.475-20.5-4.1-52.275-27.675-119.925-105.575-146.575-9.225-3.075-14.35-11.275-14.35-20.5v-85.075c0-7.175 5.125-12.3 12.3-12.3h59.45v-180.4c0-64.575 32.8-175.275 184.5-175.275 59.45 0 104.55 20.5 121.975 38.95z" />
<glyph unicode="&#xf178;" glyph-name="certificate" d="M512.5 761.644c20.5 0 39.975-6.15 57.4-18.45l52.275-36.9 60.475-8.2h1.025c42.025-5.125 75.85-38.95 80.975-80.975 0-1.025 1.025-1.025 1.025-2.050h-1.025l12.3-60.475 36.9-53.3c24.6-33.825 23.575-78.925 1.025-114.8v-1.025l-1.025-1.025-36.9-53.3-8.2-59.45 100.45-152.725 32.8-49.2h-152.725l-37.925-86.1-22.55-54.325-32.8 50.225-101.475 151.7c-26.65-12.3-57.4-11.275-84.050 0l-101.475-151.7-32.8-50.225-22.55 54.325-36.9 86.1h-153.75l32.8 49.2 103.525 157.85-10.25 54.325-37.925 53.3c-24.6 33.825-23.575 79.95-1.025 115.825v1.025l1.025 1.025 36.9 48.175 8.2 62.525v1.025l1.025 1.025c9.225 41 41 72.775 82 82l1.025 1.025h1.025l61.5 8.2 52.275 36.9c17.425 12.3 37.925 18.45 57.4 18.45zM512.5 697.069c-7.175 0-14.35-2.050-19.475-6.15l-64.575-46.125-8.2-1.025-66.625-9.225c-1.025 0-1.025-1.025-1.025-1.025-15.375-4.1-28.7-16.4-31.775-31.775-1.025 0-1.025 0-1.025-1.025l-9.225-66.625-1.025-9.225-5.125-6.15-39.975-52.275c-10.25-15.375-9.225-33.825-1.025-45.1l41-56.375 5.125-6.15 1.025-8.2 12.3-72.775v-2.050c1.025-5.125 2.050-9.225 4.1-12.3 5.125-8.2 12.3-13.325 22.55-14.35h1.025l69.7-9.225 9.225-1.025 6.15-5.125 52.275-39.975c15.375-10.25 33.825-9.225 45.1-1.025l56.375 41 6.15 5.125 8.2 1.025 72.775 12.3h2.050c8.2 1.025 14.35 5.125 19.475 10.25v1.025l2.050 1.025c2.050 4.1 4.1 8.2 5.125 14.35v1.025l9.225 69.7 1.025 8.2 5.125 7.175 39.975 55.35c10.25 15.375 9.225 33.825 1.025 44.075l-41 57.4-5.125 6.15-1.025 7.175-12.3 70.725v2.050c-2.050 14.35-12.3 24.6-26.65 25.625h-1.025l-69.7 10.25-8.2 1.025-7.175 5.125-56.375 41c-6.15 4.1-13.325 6.15-20.5 6.15zM733.901 209.169c-13.325-10.25-28.7-17.425-46.125-19.475-1.025 0-1.025-1.025-2.050-1.025v1.025l-63.55-11.275-14.35-11.275 67.65-103.525 22.55 50.225 8.2 20.5h76.875zM291.1 208.144l-49.2-73.8h77.9l7.175-20.5 22.55-50.225 67.65 102.5-13.325 11.275-61.5 8.2c0 0-1.025 0-1.025 0-19.475 2.050-35.875 10.25-50.225 22.55z" />
<glyph unicode="&#xf179;" glyph-name="apple" horiz-adv-x="753" d="M630.055 319.375c0-3.075-7.175-121.975 123-183.475-24.6-73.8-107.625-237.8-205-238.825-56.375 0-89.175 35.875-152.725 35.875-65.6 0-101.475-34.85-151.7-35.875-97.375-3.075-189.625 177.325-215.25 250.1-19.475 56.375-28.7 110.7-28.7 162.975 0 177.325 118.9 264.45 230.625 266.5 54.325 0 123-38.95 152.725-38.95 28.7 0 106.6 46.125 177.325 41 74.825-6.15 132.225-35.875 169.125-89.175-66.625-41-100.45-96.35-99.425-170.15zM516.28 648.4c-38.95-46.125-87.125-72.775-139.4-68.675-4.1 55.35 16.4 104.55 51.25 143.5 31.775 37.925 88.15 67.65 136.325 70.725 2.050-21.525 6.15-80.975-48.175-145.55z" />
<glyph unicode="&#xf17a;" glyph-name="windows" horiz-adv-x="897" d="M0 670.419l367.975 50.225v-354.65h-367.975v304.425zM0 20.568v300.325h367.975v-350.55zM407.95-35.807v356.7h488.925v-424.35zM407.95 726.794l488.925 67.65v-428.45h-488.925v360.8z" />
<glyph unicode="&#xf17b;" glyph-name="android" horiz-adv-x="897" d="M178.863 448.656v-232.675c0-30.75-24.6-55.35-55.35-55.35s-59.45 25.625-59.45 55.35v232.675c0 29.725 28.7 54.325 59.45 54.325s55.35-24.6 55.35-54.325zM200.388 133.981v358.75h495.075v-358.75c0-32.8-26.65-59.45-58.425-59.45h-41v-121.975c0-73.8-110.7-73.8-110.7 0v121.975h-74.825v-121.975c0-73.8-110.7-73.8-110.7 0v121.975h-39.975c-32.8 0-59.45 26.65-59.45 59.45zM697.513 512.206h-499.175c0 86.1 51.25 160.925 127.1 198.85l-37.925 70.725c-6.15 10.25 8.2 16.4 13.325 8.2l38.95-71.75c69.7 31.775 149.65 29.725 216.275 0l38.95 71.75c5.125 8.2 19.475 2.050 13.325-8.2l-37.925-70.725c75.85-37.925 127.1-112.75 127.1-198.85zM355.163 623.932c0 11.275-9.225 20.5-20.5 20.5-12.3 0-20.5-9.225-20.5-20.5s9.225-21.525 20.5-21.525c11.275 0 20.5 10.25 20.5 21.525zM582.713 623.932c0 11.275-9.225 20.5-20.5 20.5-12.3 0-21.525-9.225-21.525-20.5s9.225-21.525 21.525-21.525c11.275 0 20.5 10.25 20.5 21.525zM772.338 502.981c30.75 0 60.475-23.575 60.475-54.325v-232.675c0-29.725-29.725-55.35-60.475-55.35s-55.35 24.6-55.35 55.35v232.675c0 30.75 24.6 54.325 55.35 54.325z" />
<glyph unicode="&#xf17c;" glyph-name="linux" horiz-adv-x="897" d="M441.488 611.065c-2.050 1.025-6.15 1.025-6.15 4.1-1.025 0 0 1.025 1.025 2.050 3.075 1.025 7.175 1.025 11.275 0 2.050-2.050 6.15-3.075 6.15-6.15 0-2.050-4.1-3.075-6.15-3.075s-4.1 2.050-6.15 3.075zM398.438 607.99c-2.050 0-6.15 1.025-6.15 3.075s4.1 4.1 6.15 5.125c4.1 2.050 8.2 2.050 11.275 1.025 1.025-1.025 2.050-2.050 1.025-3.075-1.025-2.050-4.1-2.050-7.175-3.075-2.050-1.025-3.075-3.075-5.125-3.075zM840.214 49.364c22.55-24.6 31.775-43.050 31.775-59.45-1.025-16.4-13.325-27.675-28.7-35.875-29.725-18.45-73.8-31.775-101.475-64.575-28.7-33.825-63.55-53.3-96.35-56.375-32.8-2.050-64.575 12.3-80.975 46.125v0c-2.050 4.1-4.1 9.225-5.125 13.325-43.050-2.050-79.95 11.275-109.675 8.2-44.075-2.050-71.75-12.3-97.375-13.325-9.225-20.5-28.7-34.85-51.25-39.975-32.8-7.175-72.775 0-112.75 20.5-36.9 19.475-84.050 18.45-117.875 25.625-17.425 3.075-32.8 10.25-41 24.6-7.175 14.35-6.15 34.85 5.125 63.55 3.075 10.25 0 25.625-2.050 41-1.025 8.2-2.050 16.4-2.050 23.575 0 9.225 1.025 17.425 5.125 25.625 9.225 16.4 23.575 23.575 36.9 28.7s25.625 8.2 34.85 16.4c10.25 11.275 19.475 28.7 32.8 41-5.125 33.825 0 70.725 12.3 106.6 25.625 75.85 78.925 148.625 116.85 193.725 31.775 45.1 41 82 44.075 129.15 3.075 63.55-48.175 270.6 156.825 270.6 161.95 0 152.725-171.175 151.7-262.4-1.025-60.475 32.8-101.475 66.625-144.525 30.75-35.875 69.7-89.175 93.275-148.625 18.45-49.2 25.625-104.55 7.175-158.875 3.075-1.025 5.125-2.050 8.2-4.1 3.075-1.025 5.125-3.075 8.2-5.125 13.325-11.275 17.425-28.7 20.5-45.1 4.1-16.4 7.175-31.775 14.35-39.975zM447.638 683.84c-6.15-15.375-8.2-30.75-6.15-44.075 7.175-2.050 18.45-5.125 26.65-9.225-4.1 24.6 8.2 47.15 23.575 46.125 17.425 0 27.675-30.75 18.45-54.325-2.050-4.1-6.15-7.175-8.2-9.225 13.325-5.125 21.525-8.2 25.625-10.25 15.375 19.475 21.525 53.3 8.2 80.975-19.475 43.050-68.675 44.075-88.15 0zM365.638 706.39c-36.9 0-47.15-74.825-16.4-104.55 15.375 11.275 14.35 9.225 12.3 11.275-16.4 13.325-13.325 55.35 3.075 56.375 12.3 1.025 21.525-21.525 19.475-38.95 6.15 4.1 13.325 7.175 20.5 9.225 3.075 37.925-18.45 66.625-38.95 66.625zM338.988 584.415c-8.2-6.15-11.275-14.35-8.2-24.6 3.075-9.225 12.3-20.5 28.7-29.725s24.6-23.575 39.975-30.75c6.15-2.050 12.3-3.075 19.475-4.1 36.9-2.050 54.325 22.55 76.875 29.725 23.575 7.175 39.975 22.55 45.1 36.9 6.15 16.4-4.1 28.7-20.5 35.875-22.55 10.25-32.8 10.25-45.1 18.45-21.525 13.325-37.925 18.45-52.275 18.45-28.7 0-46.125-19.475-56.375-28.7-1.025-1.025-15.375-12.3-27.675-21.525zM345.138-83.886c4.1 41-62.525 98.4-82 138.375l-38.95 70.725c-13.325 18.45-27.675 29.725-44.075 31.775-15.375 3.075-24.6-2.050-34.85-13.325-10.25-10.25-18.45-24.6-28.7-35.875-16.4-13.325-18.45-12.3-39.975-20.5-12.3-4.1-22.55-8.2-28.7-22.55-6.15-9.225-5.125-23.575-2.050-39.975 2.050-15.375 6.15-31.775 1.025-47.15v-1.025c-10.25-27.675-10.25-43.050-5.125-52.275 15.375-30.75 93.275-12.3 152.725-44.075 63.55-32.8 145.55-34.85 150.675 35.875zM343.088-31.611c74.825-52.275 164-31.775 228.575 14.35 6.15 21.525 12.3 42.025 13.325 57.4 2.050 30.75 3.075 57.4 9.225 79.95 6.15 25.625 18.45 46.125 43.050 55.35 4.1 42.025 36.9 42.025 75.85 24.6 37.925-17.425 52.275-31.775 46.125-52.275 2.050 0 4.1 0 8.2 0 10.25 33.825-28.7 56.375-61.5 69.7 6.15 23.575 5.125 48.175-1.025 71.75-11.275 50.225-45.1 95.325-69.7 117.875-5.125 0-5.125-4.1 5.125-13.325 22.55-21.525 73.8-98.4 46.125-170.15-7.175 2.050-15.375 3.075-21.525 3.075-10.25 58.425-34.85 106.6-47.15 129.15-23.575 43.050-59.45 131.2-74.825 191.675-9.225-12.3-24.6-23.575-44.075-29.725-10.25-3.075-19.475-11.275-31.775-18.45-28.7-15.375-60.475-17.425-85.075 3.075-9.225 7.175-16.4 15.375-25.625 20.5-3.075 2.050-10.25 6.15-12.3 8.2-4.1-75.85-54.325-171.175-78.925-225.5-16.4-39.975-26.65-82-27.675-123-43.050 58.425-11.275 132.225 5.125 165.025 19.475 34.85 22.55 45.1 17.425 41-16.4-27.675-44.075-72.775-54.325-117.875-5.125-24.6-6.15-48.175 1.025-70.725s21.525-43.050 49.2-60.475c0 0 49.2-27.675 76.875-64.575 14.35-20.5 19.475-37.925 14.35-50.225-5.125-13.325-19.475-17.425-33.825-17.425 10.25-12.3 21.525-26.65 29.725-38.95zM857.639-9.061c1.025 10.25-6.15 26.65-26.65 49.2s-14.35 66.625-34.85 83.025c-13.325 12.3-26.65 11.275-45.1 10.25-15.375-17.425-51.25-38.95-76.875-31.775-22.55 5.125-35.875 31.775-37.925 58.425 0 0-1.025 0-2.050-1.025-13.325-7.175-21.525-21.525-26.65-42.025s-7.175-47.15-9.225-77.9c-1.025-23.575-12.3-52.275-19.475-80.975-7.175-26.65-11.275-50.225-2.050-72.775 14.35-28.7 38.95-41 67.65-38.95 27.675 3.075 60.475 20.5 87.125 51.25 44.075 53.3 125.050 59.45 126.075 93.275zM347.188 560.84c-7.175 5.125-7.175 13.325-4.1 12.3 5.125 0 6.15-7.175 9.225-9.225 4.1-4.1 9.225-9.225 15.375-14.35 12.3-9.225 28.7-19.475 49.2-19.475s45.1 12.3 60.475 20.5c8.2 5.125 18.45 13.325 27.675 19.475 6.15 5.125 6.15 11.275 12.3 10.25 5.125 0 1.025-6.15-7.175-13.325-7.175-6.15-19.475-15.375-28.7-20.5-19.475-9.225-41-21.525-64.575-21.525-22.55 0-41 11.275-54.325 21.525-6.15 5.125-12.3 10.25-15.375 14.35z" />
<glyph unicode="&#xf17d;" glyph-name="dribbble" d="M512.5 841.594c273.675 0 496.1-222.425 496.1-496.1s-222.425-496.1-496.1-496.1-496.1 222.425-496.1 496.1 222.425 496.1 496.1 496.1zM840.501 613.019c-8.2-12.3-79.95-103.525-236.775-167.075 15.375-30.75 25.625-55.35 37.925-83.025 140.425 17.425 280.85-11.275 295.2-14.35-1.025 100.45-36.9 192.7-96.35 264.45zM793.351 662.219c-103.525 92.25-246 127.1-380.275 95.325 12.3-16.4 89.175-120.95 157.85-249.075 151.7 57.4 215.25 142.475 222.425 153.75zM332.1 728.844c-118.9-56.375-207.050-165.025-234.725-297.25 19.475 0 193.725-1.025 392.575 52.275-70.725 124.025-146.575 229.6-157.85 244.975zM88.15 344.469c0-108.65 42.025-208.075 109.675-282.9 68.675 117.875 208.075 241.9 360.8 284.95-10.25 23.575-21.525 48.175-33.825 71.75-212.175-63.55-417.175-60.475-435.625-60.475-1.025-4.1-1.025-8.2-1.025-13.325zM252.15 10.318c126.075-98.4 290.075-113.775 426.4-56.375-6.15 37.925-31.775 167.075-91.225 321.85-170.15-58.425-291.1-175.275-335.175-265.475zM749.276-7.107c95.325 64.575 162.975 167.075 182.45 284.95-15.375 4.1-132.225 38.95-264.45 17.425 55.35-151.7 77.9-275.725 82-302.375z" />
<glyph unicode="&#xf17e;" glyph-name="skype" horiz-adv-x="895" d="M849.75 257.856c28.7-37.925 46.125-86.1 46.125-137.35 0-123-100.45-223.45-224.475-223.45-51.25 0-98.4 17.425-136.325 46.125-28.7-6.15-58.425-9.225-88.15-9.225-226.525 0-411.025 183.475-411.025 411.025 0 29.725 4.1 59.45 10.25 88.15-29.725 37.925-47.15 85.075-47.15 136.325 0 124.025 100.45 224.475 224.475 224.475 51.25 0 98.4-17.425 136.325-47.15 28.7 6.15 58.425 9.225 88.15 9.225 226.525 0 411.025-183.475 411.025-411.025 0-29.725-4.1-59.45-9.225-87.125zM459.224 74.381c110.7 0 224.475 54.325 224.475 173.225 0 101.475-98.4 136.325-181.425 154.775-96.35 22.55-138.375 26.65-138.375 66.625 0 30.75 32.8 45.1 84.050 45.1 92.25 0 93.275-67.65 150.675-67.65 37.925 0 60.475 29.725 60.475 63.55 0 67.65-111.725 111.725-222.425 111.725-100.45 0-218.325-44.075-218.325-162.975 0-130.175 110.7-143.5 235.75-174.25 52.275-13.325 84.050-18.45 84.050-56.375 0-29.725-32.8-52.275-84.050-52.275-108.65 0-113.775 90.2-176.3 90.2-41 0-59.45-29.725-59.45-61.5 0-71.75 109.675-130.175 240.875-130.175z" />
<glyph unicode="&#xf180;" glyph-name="foursquare" horiz-adv-x="736" d="M646.146 857.92c79.95 0 101.475-45.1 85.075-130.175l-97.375-486.875c-8.2-28.7-18.45-78.925-89.175-78.925h-167.075c-6.15 0-7.175 0-13.325-6.15 0 0-4.1-5.125-262.4-304.425-20.5-23.575-53.3-19.475-65.6-14.35s-36.9 19.475-36.9 60.475v868.176c0 35.875 24.6 92.25 100.45 92.25h546.326zM613.346 710.32c4.1 19.475-10.25 34.85-26.65 34.85h-438.7c-19.475 0-32.8-17.425-32.8-32.8v-678.551c0-2.050 2.050-2.050 3.075 0 161.95 193.725 179.375 216.275 179.375 216.275 18.45 21.525 25.625 25.625 53.3 25.625h146.575c20.5 0 32.8 16.4 33.825 26.65 2.050 10.25 19.475 99.425 23.575 117.875 3.075 17.425-13.325 35.875-29.725 35.875h-181.425c-23.575 0-41 17.425-41 42.025v25.625c0 23.575 17.425 41 41 41h213.2c14.35 0 31.775 13.325 33.825 25.625z" />
<glyph unicode="&#xf181;" glyph-name="trello" horiz-adv-x="895" d="M784.15 794.444c61.5-1.025 111.725-51.25 111.725-112.75v-672.401c0-61.5-50.225-111.725-111.725-112.75h-673.426c-61.5 0-111.725 50.225-111.725 112.75 0 680.601 0 672.401 0 672.401 0 62.525 50.225 112.75 112.75 112.75h672.401zM393.624 114.868v0 508.4c0 29.725-24.6 54.325-54.325 54.325h-165.025c-30.75 0-54.325-24.6-54.325-54.325v-508.4c0-29.725 24.6-53.3 54.325-53.3h165.025c29.725 0 53.3 23.575 54.325 53.3zM780.050 339.344v283.925c0 29.725-24.6 54.325-54.325 54.325h-161.95c-29.725 0-53.3-24.6-53.3-54.325v-283.925c0-29.725 23.575-54.325 53.3-54.325h161.95c30.75 0 54.325 24.6 54.325 54.325z" />
<glyph unicode="&#xf184;" glyph-name="gratipay" horiz-adv-x="992" d="M495.472 841.594c274.7 0 497.125-222.425 497.125-496.1s-222.425-496.1-497.125-496.1-496.1 222.425-496.1 496.1 222.425 496.1 496.1 496.1zM725.072 388.544c17.425 24.6 38.95 101.475-27.675 144.525-55.35 35.875-108.65 8.2-136.325-23.575-29.725-33.825-91.225-35.875-123 0-27.675 31.775-80.975 59.45-137.35 23.575-65.6-43.050-45.1-120.95-27.675-144.525l226.525-305.45z" />
<glyph unicode="&#xf189;" glyph-name="vk" horiz-adv-x="1151" d="M1090.892 621.731c-15.375-68.675-158.875-270.6-159.9-271.625-12.3-19.475-17.425-29.725 0-52.275 7.175-9.225 158.875-152.725 181.425-223.45 9.225-32.8-7.175-49.2-41-49.2h-117.875c-45.1 0-58.425 35.875-138.375 115.825-69.7 66.625-100.45 75.85-117.875 75.85-36.9 0-30.75-12.3-30.75-146.575 0-28.7-9.225-45.1-84.050-45.1-125.050 0-262.4 75.85-359.775 215.25-146.575 205-186.55 359.775-186.55 391.55 0 17.425 7.175 33.825 41 33.825h117.875c29.725 0 41-13.325 53.3-46.125 57.4-168.1 154.775-315.7 194.75-315.7 15.375 0 21.525 7.175 21.525 45.1v174.25c-4.1 79.95-46.125 86.1-46.125 114.8 0 13.325 11.275 27.675 29.725 27.675h185.525c24.6 0 32.8-14.35 32.8-44.075v-233.7c0-24.6 11.275-33.825 19.475-33.825 14.35 0 27.675 9.225 54.325 36.9 85.075 94.3 145.55 240.875 145.55 240.875 7.175 17.425 20.5 33.825 51.25 33.825h117.875c35.875 0 43.050-18.45 35.875-44.075z" />
<glyph unicode="&#xf18a;" glyph-name="weibo" horiz-adv-x="1023" d="M813.896 469.418c15.375 48.175-26.65 94.3-74.825 84.050-44.075-10.25-57.4 56.375-14.35 65.6 100.45 21.525 184.5-74.825 152.725-170.15-13.325-42.025-76.875-21.525-63.55 20.5zM429.52-69.733c-213.2 0-430.5 103.525-430.5 273.675 0 88.15 56.375 190.65 152.725 287 199.875 199.875 406.925 202.95 347.475 12.3-8.2-26.65 24.6-12.3 24.6-12.3 158.875 67.65 281.875 33.825 228.575-103.525-7.175-18.45 2.050-21.525 16.4-25.625 271.625-85.075 69.7-431.525-339.275-431.525zM716.521 223.417c-10.25 111.725-156.825 188.6-326.975 172.2-170.15-17.425-298.275-120.95-287-232.675s156.825-187.575 326.975-171.175c170.15 17.425 298.275 120.95 287 231.65zM696.021 754.368c203.975 44.075 378.225-148.625 314.675-348.5-16.4-50.225-90.2-24.6-74.825 24.6 46.125 142.475-78.925 277.775-223.45 248.050-50.225-11.275-68.675 65.6-16.4 75.85zM538.171 132.192c-33.825-77.9-133.25-119.925-218.325-92.25-82 25.625-115.825 106.6-80.975 179.375 35.875 70.725 127.1 110.7 207.050 90.2 84.050-21.525 127.1-100.45 92.25-177.325zM365.97 192.667c-26.65 10.25-60.475-1.025-76.875-26.65s-8.2-55.35 17.425-67.65c26.65-12.3 61.5-1.025 78.925 25.625 15.375 26.65 7.175 57.4-19.475 68.675zM430.545 219.317c-10.25 3.075-22.55-1.025-28.7-11.275-5.125-10.25-2.050-20.5 8.2-25.625 10.25-4.1 22.55 1.025 28.7 11.275s2.050 21.525-8.2 25.625z" />
<glyph unicode="&#xf18b;" glyph-name="renren" d="M428.45 523.844c0-221.4-121.975-411.025-295.2-495.075-72.775 86.1-116.85 197.825-116.85 319.8 0 246 178.35 448.95 412.050 488.925v-313.65zM510.45-146.507c-86.1 0-167.075 21.525-236.775 60.475 113.775 71.75 207.050 181.425 236.775 309.55 30.75-128.125 124.025-237.8 237.8-309.55-69.7-38.95-150.675-60.475-237.8-60.475zM891.751 28.768c-173.225 84.050-295.2 273.675-295.2 495.075v313.65c233.7-39.975 412.050-242.925 412.050-488.925 0-121.975-44.075-233.7-116.85-319.8z" />
<glyph unicode="&#xf18c;" glyph-name="pagelines" horiz-adv-x="769" d="M768.56 231.206c-110.7-273.675-374.125-107.625-374.125-107.625-80.975-164-215.25-269.575-370.025-269.575-31.775 0-32.8 48.175 0 48.175 129.15 1.025 240.875 86.1 314.675 220.375-82-31.775-237.8-55.35-323.9 165.025 218.325 90.2 318.775-22.55 357.725-91.225 19.475 49.2 33.825 102.5 43.050 159.9 0 0-279.825-44.075-299.3 195.775 238.825 96.35 305.45-152.725 305.45-152.725 3.075 32.8 6.15 104.55 6.15 106.6 0 0-212.175 147.6-75.85 331.075 249.075-86.1 123-325.95 123-325.95 1.025-3.075 1.025-47.15 0-66.625 0 0 90.2 178.35 272.65 114.8-8.2-267.525-283.925-212.175-283.925-212.175-8.2-55.35-22.55-107.625-39.975-155.8 0 0 166.050 184.5 344.4 39.975z" />
<glyph unicode="&#xf18d;" glyph-name="stack-exchange" horiz-adv-x="897" d="M35.363 192.769h826.151v-44.075c0-75.85-59.45-136.325-131.2-136.325h-37.925l-174.25-179.375v179.375h-352.6c-71.75 0-130.175 60.475-130.175 136.325v44.075zM35.363 239.919v170.15h826.151v-170.15h-826.151zM35.363 459.269v170.15h826.151v-170.15h-826.151zM730.313 857.994c71.75 0 130.175-60.475 131.2-135.3v-45.1h-826.151v45.1c0 74.825 58.425 135.3 130.175 135.3h564.776z" />
<glyph unicode="&#xf18f;" glyph-name="clock-o" d="M512.5 729.869c212.175 0 384.375-172.2 384.375-384.375s-172.2-384.375-384.375-384.375-384.375 172.2-384.375 384.375 172.2 384.375 384.375 384.375zM512.5 666.319c-177.325 0-319.8-143.5-319.8-320.825s142.475-319.8 319.8-319.8 320.825 142.475 320.825 319.8-143.5 320.825-320.825 320.825zM480.725 601.744h63.55v-224.475h160.925v-63.55h-224.475v288.025z" />
<glyph unicode="&#xf191;" glyph-name="close" d="M231.65 672.469l280.85-280.85 280.85 280.85 46.125-46.125-280.85-280.85 280.85-280.85-46.125-46.125-280.85 280.85-280.85-280.85-46.125 46.125 280.85 280.85-280.85 280.85z" />
<glyph unicode="&#xf194;" glyph-name="vimeo-square" horiz-adv-x="897" d="M800.526 794.444c53.3 0 96.35-43.050 96.35-96.35v-705.201c0-53.3-43.050-96.35-96.35-96.35h-704.176c-53.3 0-96.35 43.050-96.35 96.35v705.201c0 53.3 43.050 96.35 96.35 96.35h704.176zM768.751 494.119c3.075 84.050-27.675 126.075-93.275 128.125-89.175 3.075-148.625-47.15-180.4-149.65 38.95 16.4 97.375 20.5 90.2-45.1-2.050-21.525-16.4-54.325-43.050-96.35-74.825-117.875-92.25-77.9-133.25 181.425-12.3 72.775-43.050 106.6-92.25 102.5-44.075-4.1-114.8-76.875-188.6-141.45l29.725-38.95c28.7 20.5 46.125 30.75 50.225 30.75 42.025 0 63.55-108.65 113.775-293.15 25.625-68.675 57.4-103.525 94.3-103.525 60.475 0 134.275 56.375 221.4 170.15 84.050 107.625 128.125 193.725 131.2 255.225z" />
<glyph unicode="&#xf198;" glyph-name="slack" horiz-adv-x="897" d="M188.6 227.619c0-52.275-42.025-94.3-94.3-94.3s-94.3 42.025-94.3 94.3c0 51.25 42.025 94.3 94.3 94.3h94.3v-94.3zM235.75 227.619c0 51.25 43.050 94.3 94.3 94.3 52.275 0 94.3-43.050 94.3-94.3v-236.775c0-51.25-42.025-94.3-94.3-94.3-51.25 0-94.3 43.050-94.3 94.3v236.775zM330.050 605.844c-51.25 0-94.3 42.025-94.3 94.3 0 51.25 43.050 94.3 94.3 94.3 52.275 0 94.3-43.050 94.3-94.3v-94.3h-94.3zM330.050 557.669c52.275 0 94.3-42.025 94.3-94.3 0-51.25-42.025-93.275-94.3-93.275h-235.75c-52.275 0-94.3 42.025-94.3 93.275 0 52.275 42.025 94.3 94.3 94.3h235.75zM708.276 463.369c0 52.275 43.050 94.3 94.3 94.3 52.275 0 94.3-42.025 94.3-94.3 0-51.25-42.025-93.275-94.3-93.275h-94.3v93.275zM661.126 463.369c0-51.25-42.025-93.275-94.3-93.275s-94.3 42.025-94.3 93.275v236.775c0 51.25 42.025 94.3 94.3 94.3s94.3-43.050 94.3-94.3v-236.775zM566.826 85.143c52.275 0 94.3-42.025 94.3-94.3 0-51.25-42.025-94.3-94.3-94.3s-94.3 43.050-94.3 94.3v94.3h94.3zM566.826 133.318c-52.275 0-94.3 42.025-94.3 94.3 0 51.25 42.025 94.3 94.3 94.3h235.75c52.275 0 94.3-43.050 94.3-94.3 0-52.275-42.025-94.3-94.3-94.3h-235.75z" />
<glyph unicode="&#xf19a;" glyph-name="wordpress" d="M124.025 518.719l202.95-556.576c-142.475 68.675-239.85 215.25-239.85 383.35 0 61.5 13.325 119.925 36.9 173.225zM800.526 367.019c0-36.9-14.35-78.925-32.8-137.35l-42.025-142.475-153.75 458.175c25.625 1.025 48.175 4.1 48.175 4.1 22.55 2.050 20.5 35.875-3.075 34.85 0 0-68.675-5.125-112.75-5.125-42.025 0-112.75 5.125-112.75 5.125-22.55 1.025-25.625-33.825-2.050-34.85 0 0 21.525-3.075 44.075-4.1l66.625-181.425-93.275-279.825-154.775 461.25c25.625 1.025 48.175 4.1 48.175 4.1 22.55 2.050 20.5 35.875-3.075 34.85 0 0-68.675-5.125-112.75-5.125-8.2 0-17.425 0-27.675 0 75.85 115.825 207.050 192.7 355.675 192.7 110.7 0 212.175-43.050 288.025-112.75-2.050 1.025-4.1 1.025-6.15 1.025-42.025 0-70.725-36.9-70.725-75.85 0-34.85 19.475-64.575 41-99.425 16.4-28.7 35.875-65.6 35.875-117.875zM519.675 308.594l131.2-358.75c1.025-2.050 2.050-4.1 3.075-6.15-44.075-15.375-92.25-24.6-141.45-24.6-42.025 0-82 6.15-119.925 17.425zM886.626 549.469c32.8-60.475 51.25-130.175 51.25-203.975 0-156.825-85.075-294.175-211.15-367.975l130.175 376.175c24.6 60.475 31.775 109.675 31.775 152.725 0 15.375-1.025 29.725-2.050 43.050zM1008.601 345.494c0-273.675-222.425-496.1-496.1-496.1s-496.1 222.425-496.1 496.1c0 273.675 222.425 496.1 496.1 496.1s496.1-222.425 496.1-496.1zM986.051 345.494c0 261.375-212.175 473.55-473.55 473.55s-473.55-212.175-473.55-473.55 212.175-473.55 473.55-473.55c261.375 0 473.55 212.175 473.55 473.55z" />
<glyph unicode="&#xf19b;" glyph-name="openid" horiz-adv-x="897" d="M543.251-7.107l-135.3-63.55c-230.625 20.5-407.95 142.475-407.95 292.125 0 142.475 165.025 261.375 383.35 288.025v-86.1c-142.475-24.6-248.050-105.575-248.050-201.925 0-102.5 117.875-187.575 271.625-207.050v680.601l136.325 66.625v-768.751zM896.876 275.794l-262.4 56.375 72.775 42.025c-38.95 22.55-86.1 39.975-139.4 49.2v86.1c92.25-11.275 175.275-38.95 240.875-78.925l69.7 39.975z" />
<glyph unicode="&#xf19e;" glyph-name="yahoo" horiz-adv-x="895" d="M503.3 273.744l8.2-440.75c-25.625 4.1-47.15 8.2-64.575 8.2-16.4 0-38.95-4.1-64.575-8.2l8.2 440.75c-110.7 189.625-221.4 393.6-348.5 584.251 23.575-6.15 46.125-8.2 66.625-8.2 17.425 0 41 2.050 67.65 8.2 82-144.525 165.025-277.775 270.6-451 74.825 123 182.45 288.025 269.575 451 22.55-6.15 44.075-8.2 66.625-8.2s46.125 2.050 69.7 8.2c-68.675-96.35-263.425-434.6-349.525-584.251z" />
<glyph unicode="&#xf1a1;" glyph-name="reddit" d="M403.85 246.069c-27.675 0-50.225 22.55-50.225 49.2 0 27.675 22.55 50.225 50.225 50.225 26.65 0 49.2-22.55 49.2-50.225 0-26.65-22.55-49.2-49.2-49.2zM1008.601 345.494c0-274.7-221.4-496.1-496.1-496.1s-496.1 221.4-496.1 496.1 221.4 496.1 496.1 496.1 496.1-221.4 496.1-496.1zM744.151 428.519c-18.45 0-35.875-8.2-47.15-20.5-45.1 30.75-105.575 51.25-173.225 53.3l34.85 156.825 111.725-25.625c0-26.65 21.525-49.2 49.2-49.2s49.2 22.55 49.2 50.225c0 27.675-21.525 50.225-49.2 50.225-19.475 0-36.9-12.3-45.1-27.675l-121.975 26.65c-6.15 2.050-12.3-2.050-14.35-8.2l-37.925-173.225c-66.625-3.075-126.075-22.55-171.175-53.3-12.3 12.3-29.725 20.5-48.175 20.5-69.7 0-92.25-94.3-28.7-126.075-2.050-10.25-3.075-20.5-3.075-30.75 0-105.575 117.875-190.65 263.425-190.65 146.575 0 265.475 85.075 265.475 190.65 0 10.25-1.025 21.525-4.1 30.75 62.525 32.8 39.975 126.075-29.725 126.075zM605.776 195.844c5.125 4.1 12.3 4.1 17.425 0 5.125-5.125 5.125-13.325 0-17.425-46.125-46.125-175.275-46.125-221.4 0-4.1 4.1-4.1 12.3 0 17.425 5.125 4.1 12.3 4.1 17.425 0 34.85-35.875 150.675-36.9 186.55 0zM621.151 345.494c28.7 0 50.225-22.55 50.225-50.225 0-26.65-22.55-49.2-50.225-49.2-26.65 0-49.2 22.55-49.2 49.2 0 27.675 22.55 50.225 49.2 50.225z" />
<glyph unicode="&#xf1a2;" glyph-name="reddit-square" horiz-adv-x="897" d="M566.826 166.118c5.125-5.125 5.125-13.325 0-18.45-49.2-49.2-187.575-49.2-236.775 0-5.125 5.125-5.125 13.325 0 18.45s13.325 5.125 17.425 0c37.925-37.925 162.975-38.95 201.925 0 4.1 5.125 12.3 5.125 17.425 0zM384.375 273.744c0-28.7-23.575-52.275-53.3-52.275s-53.3 23.575-53.3 52.275c0 29.725 23.575 54.325 53.3 54.325s53.3-24.6 53.3-54.325zM565.801 328.069c29.725 0 53.3-24.6 53.3-54.325 0-28.7-23.575-52.275-53.3-52.275s-53.3 23.575-53.3 52.275c0 29.725 23.575 54.325 53.3 54.325zM896.876 698.094v-705.201c0-53.3-43.050-96.35-96.35-96.35h-704.176c-53.3 0-96.35 43.050-96.35 96.35v705.201c0 53.3 43.050 96.35 96.35 96.35h704.176c53.3 0 96.35-43.050 96.35-96.35zM697.001 416.219c-19.475 0-37.925-8.2-51.25-21.525-48.175 33.825-112.75 55.35-184.5 57.4l36.9 169.125 118.9-27.675c0-28.7 24.6-52.275 53.3-52.275 29.725 0 53.3 24.6 53.3 53.3 0 29.725-23.575 53.3-53.3 53.3-20.5 0-38.95-12.3-47.15-29.725l-132.225 29.725c-6.15 2.050-12.3-3.075-14.35-10.25l-41-185.525c-71.75-3.075-136.325-24.6-184.5-57.4-12.3 13.325-30.75 21.525-51.25 21.525-74.825 0-99.425-100.45-30.75-135.3-3.075-10.25-4.1-21.525-4.1-32.8 0-113.775 127.1-205 283.925-205s284.95 91.225 284.95 205c0 11.275-1.025 22.55-4.1 33.825 66.625 34.85 42.025 134.275-32.8 134.275z" />
<glyph unicode="&#xf1a3;" glyph-name="stumbleupon-circle" d="M512.5 841.594c274.7 0 496.1-221.4 496.1-496.1s-221.4-496.1-496.1-496.1-496.1 221.4-496.1 496.1 221.4 496.1 496.1 496.1zM512.5 486.944c19.475 0 35.875-16.4 35.875-35.875v-41l45.1-21.525 68.675 20.5v47.15c0 80.975-67.65 145.55-149.65 145.55-80.975 0-149.65-64.575-149.65-144.525v-216.275c0-20.5-15.375-35.875-35.875-35.875s-34.85 15.375-34.85 35.875v91.225h-114.8v-93.275c0-83.025 66.625-149.65 149.65-149.65 82 0 149.65 65.6 149.65 147.6v214.225c0 19.475 16.4 35.875 35.875 35.875zM847.676 238.894c0 0 0 1.025 1.025 93.275h-114.8v-96.35c0-19.475-16.4-34.85-35.875-34.85s-35.875 15.375-35.875 34.85v94.3l-67.65-20.5-46.125 21.525v-93.275c0-82 67.65-148.625 149.65-148.625 83.025 0 149.65 66.625 149.65 149.65z" />
<glyph unicode="&#xf1a4;" glyph-name="stumbleupon" horiz-adv-x="1005" d="M1005.766 326.019v-140.425c0-124.025-100.45-224.475-224.475-224.475s-225.5 99.425-225.5 222.425v140.425l68.675-31.775 102.5 30.75v-141.45c0-29.725 23.575-53.3 53.3-53.3s54.325 23.575 54.325 53.3v144.525h171.175zM555.791 441.844v62.525c0 28.7-23.575 53.3-53.3 53.3s-53.3-24.6-53.3-53.3v-321.85c0-121.975-101.475-221.4-224.475-221.4-125.050 0-225.5 100.45-225.5 224.475v140.425h172.2v-137.35c0-30.75 23.575-54.325 53.3-54.325s53.3 23.575 53.3 54.325v324.925c0 119.925 103.525 216.275 224.475 216.275 121.975 0 224.475-97.375 224.475-218.325v-70.725l-102.5-30.75z" />
<glyph unicode="&#xf1a5;" glyph-name="delicious" horiz-adv-x="897" d="M893.801 722.172c2.050-7.175 3.075-15.375 3.075-23.575v-705.201c0-53.3-43.050-96.35-96.35-96.35h-704.176c-8.2 0-16.4 1.025-23.575 3.075-15.375 4.1-29.725 12.3-41 22.55-2.050 2.050-5.125 4.1-7.175 6.15-10.25 11.275-17.425 25.625-21.525 41-2.050 7.175-3.075 15.375-3.075 23.575v705.201c0 53.3 43.050 96.35 96.35 95.325h704.176c8.2 0 16.4-1.025 24.6-3.075 3.075 0 7.175-2.050 10.25-3.075 4.1-1.025 8.2-3.075 11.275-5.125 3.075-1.025 5.125-3.075 8.2-4.1 2.050-2.050 4.1-4.1 6.15-5.125 5.125-4.1 10.25-9.225 14.35-14.35 3.075-4.1 6.15-8.2 9.225-13.325 2.050-5.125 5.125-9.225 6.15-14.35 1.025-3.075 2.050-6.15 3.075-9.225zM833.326-6.603v352.6h-384.375v384.375h-352.6c-17.425 0-31.775-14.35-31.775-31.775v-352.6h384.375v-384.375h351.575c17.425 0 32.8 14.35 32.8 31.775z" />
<glyph unicode="&#xf1a6;" glyph-name="digg" d="M164 513.081v152.725h101.475v-502.25h-265.475v349.525h164zM164 245.556v184.5h-62.525v-184.5h62.525zM758.501 513.081h266.5v-487.9h-266.5v80.975h164v57.4h-164v349.525zM922.501 245.556v184.5h-61.5v-184.5h61.5zM451 163.556v349.525h266.5v-487.9h-266.5v80.975h164v57.4h-164zM553.501 430.056v-184.5h61.5v184.5h-61.5zM306.475 665.806h103.525v-102.5h-103.525v102.5zM306.475 513.081h103.525v-349.525h-103.525v349.525z" />
<glyph unicode="&#xf1a7;" glyph-name="pied-piper-pp" horiz-adv-x="897" d="M411.025 508.469c0-42.025-28.7-75.85-63.55-75.85-14.35 0-25.625 2.050-33.825 7.175v136.325c8.2 5.125 19.475 8.2 33.825 8.2 34.85 0 63.55-33.825 63.55-75.85zM516.6 374.194c34.85 0 63.55-33.825 63.55-75.85s-28.7-75.85-63.55-75.85c-14.35 0-25.625 2.050-34.85 7.175v136.325c9.225 5.125 20.5 8.2 34.85 8.2zM896.876 698.094v-705.201c0-53.3-43.050-96.35-96.35-96.35h-704.176c-53.3 0-96.35 43.050-96.35 96.35v705.201c0 53.3 43.050 96.35 96.35 96.35h704.176c53.3 0 96.35-43.050 96.35-96.35zM370.025 347.544c82 0 148.625 70.725 148.625 158.875s-66.625 159.9-148.625 159.9c-23.575 0-48.175-7.175-68.675-17.425h-91.225v-413.075l103.525 19.475v101.475c17.425-6.15 35.875-9.225 56.375-9.225zM687.776 296.294c0 88.15-66.625 159.9-148.625 159.9-6.15 0-12.3-1.025-18.45-2.050-8.2-24.6-20.5-47.15-38.95-66.625-27.675-29.725-64.575-47.15-103.525-49.2v-312.625l103.525 19.475v101.475c17.425-6.15 36.9-9.225 57.4-9.225 82 0 148.625 70.725 148.625 158.875z" />
<glyph unicode="&#xf1a8;" glyph-name="pied-piper-alt" horiz-adv-x="1153" d="M488.925 366.090l-55.35-12.3-4.1 10.25c13.325 1.025 25.625 7.175 38.95 7.175 7.175 0 13.325-2.050 20.5-5.125zM760.551-30.586c19.475 0 56.375-90.2 65.6-110.7-71.75-26.65-140.425-31.775-212.175-19.475l-13.325 90.2c31.775 20.5 121.975 39.975 159.9 39.975zM682.651 503.44c-15.375 7.175-128.125 13.325-197.825-19.475 12.3 23.575 25.625 33.825 51.25 43.050 55.35 21.525 80.975 61.5 117.875 102.5 24.6-16.4 24.6-49.2 63.55-46.125v-43.050l12.3-1.025c74.825 28.7 149.65 60.475 214.225 109.675 96.35 73.8 105.575 99.425 161.95 199.875l4.1 5.125c-1.025-27.675-12.3-54.325-24.6-79.95-61.5-127.1-157.85-200.9-294.175-233.7-24.6-5.125-52.275-6.15-74.825-17.425 3.075-19.475 26.65-35.875 26.65-46.125 0-7.175-11.275-14.35-15.375-17.425-22.55 25.625-31.775 38.95-45.1 44.075zM1112.126 858.090l-1.025-3.075-1.025-1.025 1.025 2.050zM993.226 93.439c41-68.675 88.15-108.65 145.55-159.9-61.5-38.95-140.425-64.575-207.050-95.325-110.7 93.275-46.125 461.25-223.45 461.25-6.15-2.050-4.1-1.025-9.225-4.1 3.075-3.075 6.15-5.125 8.2-8.2 47.15-39.975 66.625-48.175 69.7-116.85v-19.475c2.050-43.050-10.25-85.075-19.475-127.1-51.25 2.050-102.5-21.525-155.8-5.125-1.025 11.275-2.050 61.5 1.025 82 2.050 19.475 66.625 59.45 65.6 87.125-11.275 2.050-18.45-5.125-24.6-13.325-26.65-38.95-94.3-84.050-142.475-84.050-33.825 0-112.75 143.5-153.75 172.2-6.15 4.1-10.25 10.25-15.375 17.425-31.775-8.2-278.8-64.575-295.2-64.575-12.3 0-22.55 9.225-22.55 21.525 0 11.275 6.15 21.525 17.425 23.575l279.825 60.475c-19.475 34.85 24.6 35.875 43.050 41 6.15 1.025 12.3 7.175 18.45 7.175 13.325 0 23.575-17.425 27.675-27.675 13.325 3.075 92.25 21.525 99.425 21.525 29.725 0 31.775-41 5.125-46.125l-104.55-22.55v-9.225c-1.025-20.5 90.2-120.95 106.6-120.95 35.875 0 109.675 84.050 109.675 120.95 0 61.5-85.075 24.6-85.075 66.625 0 7.175 2.050 13.325 5.125 20.5l-38.95 10.25c26.65 27.675 27.675 63.55 21.525 101.475 29.725 5.125 54.325 9.225 83.025 9.225 113.775 0 92.25-17.425 131.2-108.65l28.7 14.35c-4.1-68.675-71.75-35.875-69.7-62.525v-12.3c149.65 6.15 232.675-116.85 300.325-230.625zM600.651 1.189h18.45l5.125-48.175-23.575-7.175v55.35zM463.3 301.515l27.675 7.175 62.525-101.475-42.025-27.675zM632.426-8.036c45.1 5.125 65.6 12.3 118.9 12.3 1.025-2.050 2.050-6.15 2.050-9.225 0-14.35-99.425-24.6-116.85-27.675z" />
<glyph unicode="&#xf1a9;" glyph-name="drupal" horiz-adv-x="897" d="M639.088 629.419c26.65-16.4 193.725-134.275 193.725-358.75s-177.325-373.1-381.3-373.1c-203.975 0-387.45 160.925-387.45 380.275 0 218.325 170.15 335.175 200.9 351.575 37.925 20.5 64.575 30.75 107.625 64.575 20.5 16.4 38.95 41 44.075 99.425 30.75-36.9 66.625-78.925 93.275-97.375 42.025-27.675 85.075-38.95 129.15-66.625zM644.213-22.482c8.2 8.2 4.1 26.65-8.2 17.425-17.425-13.325-55.35-28.7-109.675-28.7-68.675 0-102.5 26.65-102.5 26.65-12.3 0-22.55-14.35-13.325-23.575 53.3-49.2 193.725-31.775 233.7 8.2zM535.563 83.093c-13.325-5.125-57.4-33.825-45.1-50.225 4.1-6.15 10.25-3.075 24.6 9.225s23.575 22.55 53.3 22.55c50.225 0 35.875-39.975 52.275-31.775 20.5 10.25-4.1 42.025-12.3 47.15-15.375 10.25-55.35 10.25-72.775 3.075zM720.063 48.243c78.925-6.15 129.15 212.175 31.775 212.175-39.975 0-120.95-83.025-164-84.050-49.2-1.025-117.875 98.4-217.3 97.375-132.225-1.025-181.425-156.825-103.525-210.125 114.8-77.9 261.375 85.075 322.875 84.050 38.95-2.050 99.425-97.375 130.175-99.425z" />
<glyph unicode="&#xf1aa;" glyph-name="joomla" horiz-adv-x="897" d="M1.025 673.494c0 66.625 54.325 120.95 119.925 120.95 60.475 0 108.65-44.075 118.9-100.45 64.575 14.35 134.275-2.050 192.7-60.475l-88.15-89.175c-41 41-86.1 32.8-111.725 7.175-28.7-28.7-28.7-75.85 0-104.55l199.875-198.85-88.15-89.175c-175.275 175.275-99.425 99.425-199.875 199.875-53.3 53.3-69.7 130.175-50.225 197.825-53.3 12.3-93.275 59.45-93.275 116.85zM260.35 440.819c57.4 56.375 162.975 161.95 199.875 199.875 53.3 53.3 129.15 69.7 196.8 50.225 8.2 58.425 58.425 103.525 118.9 103.525 65.6 0 119.925-54.325 119.925-120.95 0-60.475-46.125-110.7-104.55-118.9 19.475-66.625 5.125-140.425-57.4-202.95l-88.15 89.175c41 41 32.8 85.075 7.175 110.7-28.7 28.7-75.85 28.7-104.55 0-19.475-20.5-179.375-179.375-198.85-199.875zM793.351 136.393c58.425-8.2 103.525-58.425 103.525-118.9 0-66.625-53.3-119.925-119.925-119.925-58.425 0-106.6 41-117.875 96.35-69.7-22.55-149.65-5.125-205 55.35l88.15 89.175c39.975-41 85.075-32.8 110.7-7.175 28.7 28.7 28.7 75.85 0 103.525l-199.875 199.875 89.175 89.175c209.1-209.1 175.275-175.275 198.85-199.875 51.25-51.25 68.675-123 52.275-187.575zM625.251 241.969c-175.275-174.25-135.3-135.3-199.875-198.85-51.25-51.25-123-68.675-188.6-52.275-12.3-54.325-59.45-94.3-116.85-94.3-66.625 0-119.925 54.325-119.925 120.95 0 56.375 38.95 104.55 92.25 116.85-16.4 65.6-1.025 136.325 59.45 196.8l88.15-89.175c-39.975-39.975-32.8-84.050-6.15-110.7 28.7-28.7 74.825-28.7 103.525 0 98.4 98.4 25.625 26.65 199.875 199.875z" />
<glyph unicode="&#xf1b4;" glyph-name="behance" horiz-adv-x="1153" d="M464.325 383.419c87.125-24.6 130.175-91.225 130.175-179.375 0-144.525-121.975-206.025-250.1-206.025h-344.4v709.301h334.15c121.975 0 227.55-34.85 227.55-176.3 0-71.75-33.825-117.875-97.375-147.6zM155.8 586.369v-166.050h157.85c56.375 0 95.325 24.6 95.325 85.075 0 64.575-50.225 80.975-106.6 80.975h-146.575zM322.875 117.943c63.55 0 114.8 22.55 114.8 94.3 0 72.775-43.050 101.475-111.725 101.475h-170.15v-195.775h167.075zM1040.376 599.694h-288.025v69.7h288.025v-69.7zM1153.126 247.094c0-9.225-1.025-18.45-1.025-26.65h-371.050c0-82 44.075-130.175 126.075-130.175 43.050 0 98.4 22.55 111.725 66.625h125.050c-38.95-117.875-117.875-173.225-240.875-173.225-161.95 0-262.4 110.7-262.4 270.6 0 153.75 105.575 271.625 262.4 271.625 160.925 0 250.1-127.1 250.1-278.8zM782.076 309.619h229.6c-6.15 67.65-42.025 109.675-112.75 109.675-67.65 0-112.75-42.025-116.85-109.675z" />
<glyph unicode="&#xf1b5;" glyph-name="behance-square" horiz-adv-x="897" d="M373.1 271.694c0-38.95-27.675-51.25-62.525-51.25h-90.2v105.575h92.25c36.9 0 60.475-15.375 60.475-54.325zM357.725 436.719c0-32.8-21.525-46.125-51.25-46.125h-86.1v89.175h79.95c30.75 0 57.4-8.2 57.4-43.050zM623.201 389.569c37.925 0 57.4-22.55 60.475-59.45h-124.025c2.050 36.9 26.65 59.45 63.55 59.45zM896.876 698.094v-705.201c0-53.3-43.050-96.35-96.35-96.35h-704.176c-53.3 0-96.35 43.050-96.35 96.35v705.201c0 53.3 43.050 96.35 96.35 96.35h704.176c53.3 0 96.35-43.050 96.35-96.35zM544.276 487.969h155.8v37.925h-155.8v-37.925zM458.175 266.569c0 48.175-23.575 90.2-70.725 103.525 34.85 16.4 53.3 35.875 53.3 73.8 0 76.875-57.4 95.325-123 95.325h-181.425v-384.375h186.55c69.7 1.025 135.3 33.825 135.3 111.725zM760.551 296.294c0 82-48.175 150.675-135.3 150.675-85.075 0-142.475-63.55-142.475-146.575 0-87.125 55.35-146.575 142.475-146.575 66.625 0 109.675 29.725 130.175 94.3h-66.625c-8.2-24.6-37.925-36.9-60.475-36.9-45.1 0-68.675 26.65-68.675 70.725h200.9c0 5.125 0 10.25 0 14.35z" />
<glyph unicode="&#xf1b6;" glyph-name="steam" horiz-adv-x="992" d="M992.597 345.494c0-274.7-222.425-496.1-497.125-496.1-228.575 0-420.25 152.725-478.675 360.8l190.65-78.925c12.3-63.55 69.7-112.75 137.35-112.75 78.925 0 144.525 64.575 140.425 147.6l170.15 119.925c103.525-2.050 191.675 82 191.675 187.575 0 103.525-84.050 186.55-187.575 186.55s-187.575-84.050-187.575-186.55v-2.050l-118.9-172.2c-30.75 2.050-61.5-7.175-87.125-24.6l-266.5 110.7c20.5 255.225 234.725 456.125 496.1 456.125 274.7 0 497.125-221.4 497.125-496.1zM310.972 88.218c39.975-16.4 85.075 3.075 101.475 42.025 17.425 39.975-2.050 85.075-41 102.5l-63.55 25.625c24.6 9.225 52.275 9.225 77.9-1.025 25.625-11.275 46.125-31.775 57.4-57.4s10.25-54.325-1.025-80.975c-21.525-53.3-84.050-78.925-137.35-56.375-20.5 8.2-45.1 31.775-54.325 51.25zM659.472 348.569c-69.7 0-125.050 56.375-125.050 125.050s55.35 125.050 125.050 125.050 124.025-56.375 124.025-125.050c0-68.675-55.35-125.050-124.025-125.050zM659.472 380.344c51.25 0 93.275 42.025 93.275 93.275 0 52.275-42.025 93.275-93.275 93.275-52.275 0-94.3-42.025-94.3-93.275s42.025-93.275 94.3-93.275z" />
<glyph unicode="&#xf1b7;" glyph-name="steam-square" horiz-adv-x="897" d="M371.050 144.593c15.375 36.9-2.050 78.925-39.975 94.3l-58.425 24.6c22.55 9.225 48.175 9.225 72.775-1.025s43.050-28.7 53.3-53.3c10.25-24.6 10.25-51.25 0-75.85-21.525-50.225-78.925-73.8-129.15-52.275-23.575 9.225-41 26.65-51.25 48.175l57.4-23.575c36.9-15.375 79.95 2.050 95.325 38.95zM800.526 794.444c53.3 0 96.35-43.050 96.35-96.35v-705.201c0-53.3-43.050-96.35-96.35-96.35h-704.176c-53.3 0-96.35 43.050-96.35 96.35v226.525l178.35-73.8c12.3-60.475 65.6-105.575 129.15-105.575 73.8 0 134.275 60.475 131.2 137.35l158.875 112.75c97.375-2.050 179.375 76.875 179.375 175.275 0 96.35-78.925 175.275-175.275 175.275s-176.3-78.925-176.3-175.275v-2.050l-110.7-160.925c-28.7 2.050-57.4-6.15-80.975-22.55l-233.7 96.35v321.85c0 53.3 43.050 96.35 96.35 96.35h704.176zM601.676 348.569c-64.575 0-116.85 52.275-116.85 116.85s52.275 116.85 116.85 116.85 116.85-52.275 116.85-116.85c0-64.575-53.3-116.85-116.85-116.85zM601.676 377.269c48.175 0 88.15 39.975 88.15 88.15s-39.975 88.15-88.15 88.15c-48.175 0-88.15-39.975-88.15-88.15s39.975-88.15 88.15-88.15z" />
<glyph unicode="&#xf1bb;" glyph-name="dollar" d="M480.213 761.644h63.55v-66.625c91.225-15.375 160.925-94.3 160.925-189.625v-31.775h-64.575v31.775c0 71.75-57.4 128.125-128.125 128.125s-128.125-57.4-128.125-128.125c0-38.95 13.325-59.45 37.925-78.925s62.525-34.85 102.5-51.25 82-31.775 117.875-60.475 62.525-72.775 62.525-129.15c0-94.3-69.7-174.25-160.925-189.625v-66.625h-63.55v66.625c-91.225 15.375-159.9 94.3-159.9 189.625v31.775h63.55v-31.775c0-71.75 57.4-128.125 128.125-128.125s128.125 58.425 128.125 128.125c0 38.95-13.325 59.45-37.925 78.925s-62.525 35.875-102.5 52.275-82 31.775-117.875 59.45-61.5 72.775-61.5 129.15c0 94.3 68.675 174.25 159.9 189.625v66.625z" />
<glyph unicode="&#xf1bc;" glyph-name="spotify" horiz-adv-x="992" d="M495.472 841.594c274.7 0 497.125-222.425 497.125-496.1s-222.425-496.1-497.125-496.1-496.1 222.425-496.1 496.1 222.425 496.1 496.1 496.1zM697.397 111.793c16.4 0 30.75 12.3 30.75 30.75s-7.175 24.6-19.475 32.8c-143.5 85.075-310.575 89.175-474.575 52.275-15.375-3.075-27.675-12.3-27.675-33.825 0-15.375 12.3-30.75 31.775-30.75 6.15 0 16.4 3.075 23.575 5.125 144.525 28.7 289.050 25.625 414.1-49.2 8.2-5.125 13.325-7.175 21.525-7.175zM751.722 242.994c21.525 0 37.925 17.425 38.95 38.95 0 17.425-7.175 29.725-23.575 38.95-98.4 59.45-223.45 91.225-353.625 91.225-83.025 0-140.425-11.275-195.775-26.65-20.5-6.15-31.775-20.5-31.775-42.025s17.425-38.95 38.95-38.95c9.225 0 14.35 3.075 24.6 5.125 166.050 45.1 352.6 15.375 477.65-58.425 7.175-4.1 13.325-8.2 24.6-8.2zM813.222 395.719c24.6 0 47.15 19.475 47.15 46.125 0 23.575-10.25 36.9-26.65 45.1-111.725 65.6-264.45 96.35-411.025 96.35-86.1 0-165.025-10.25-234.725-30.75-18.45-5.125-34.85-20.5-34.85-48.175 0-26.65 19.475-47.15 46.125-47.15 10.25 0 18.45 3.075 25.625 5.125 165.025 46.125 420.25 25.625 562.726-59.45 9.225-5.125 15.375-7.175 25.625-7.175z" />
<glyph unicode="&#xf1bd;" glyph-name="deviantart" horiz-adv-x="641" d="M640.626 671.444l-196.8-358.75 15.375-18.45h181.425v-256.25h-321.85l-27.675-18.45-87.125-168.1c-1.025 0-17.425-17.425-18.45-18.45h-185.525v186.55l186.55 359.775-14.35 18.45h-172.2v255.225h312.625l26.65 18.45 87.125 168.1c1.025 0 17.425 17.425 18.45 18.45h195.775v-186.55z" />
</font>
</defs>
</svg>
